<?xml version="1.0" encoding="utf-8"?>
<!-- Generator: Adobe Illustrator 25.2.3, SVG Export Plug-In . SVG Version: 6.00 Build 0)  -->
<svg version="1.1" id="LOGO" xmlns="http://www.w3.org/2000/svg" xmlns:xlink="http://www.w3.org/1999/xlink" x="0px" y="0px"
	 viewBox="0 0 2723.1 546.68" style="enable-background:new 0 0 2723.1 546.68;" xml:space="preserve">
<style type="text/css">
	.st0{fill:#2E2D62;}
	.st1{fill:#FFFFFF;}
	.st2{fill:#00BED5;}
	.st3{fill:#008AAD;}
	.st4{fill:none;stroke:#FED100;stroke-width:0.5701;stroke-miterlimit:10;}
	.st5{fill:none;stroke:#171614;stroke-width:0.5701;stroke-miterlimit:10;}
	.st6{fill:#241F0C;}
	.st7{fill:#ED2939;}
	.st8{fill:#FED100;}
	.st9{fill:#1D1D1B;}
</style>
<g>
	<rect x="85.06" y="87.09" class="st0" width="282.31" height="282.31"/>
	<path class="st1" d="M336.3,118.16h-32.92l-44.25,47.12v-47.12h-63.95v62.56c0,13.39-9.92,21.17-23.07,21.17
		s-23.07-7.78-23.07-21.17v-62.56h-32.92v63.03c0,28.23,22.79,44.43,48.5,47.05h-48.5v110.09h32.92v-40.8h14.38l30.42,40.8H336.3
		V316.1h-38.58v-65.62h38.58v-29.04l-47.18-48.31l47.18-48.16V118.16z M226.21,194.57v51.07c-7.01-11.84-23.13-17.33-47.05-17.39
		C200.51,226.08,220.24,214.57,226.21,194.57z M149.04,250.48h30.12c12.38,0,17.4,4.8,17.4,12.33c0,7.53-5.02,12.48-17.4,12.48
		h-30.12V250.48z M264.8,316.1h-38.58v15.43l-27.16-35.59c20.68-3.81,31.36-14.5,31.36-33.12c0-4.59-0.66-8.7-1.95-12.33h36.33
		V316.1z M303.38,228.25h-44.25v-47.25L303.38,228.25z"/>
	<g>
		<polygon class="st2" points="424.6,87.1 390.05,51.72 367.37,51.72 367.37,87.1 367.37,369.4 562.35,369.4 562.35,228.15 		"/>
		<polygon class="st3" points="424.6,87.1 562.35,228.15 562.35,369.4 649.67,369.4 649.67,87.1 		"/>
	</g>
</g>
<g>
	<g>
		<path class="st4" d="M1530.19,243.02c-0.5,12.4-2.32,23.66-5.42,33.52c-3,9.55-7.29,18.05-12.76,25.27
			c-10.19,13.46-22.57,20.19-30.75,24.64c-0.72,0.39-5.57,2.86-28.94,14.51v-97.93H1530.19"/>
	</g>
	<path class="st4" d="M1392.62,243.02v97.93c-23.35-11.64-28.22-14.11-28.94-14.5c-8.19-4.45-20.57-11.18-30.75-24.64
		c-5.46-7.22-9.76-15.72-12.76-25.27c-3.1-9.86-4.92-21.12-5.42-33.52H1392.62"/>
	<path class="st5" d="M1530.34,103.47h-78.01v79.85h78.01V103.47L1530.34,103.47z"/>
	<path class="st5" d="M1392.62,103.47h-78.01v79.85h78.01V103.47L1392.62,103.47z"/>
	<path class="st6" d="M1422.47,368l-2.36-1.26c-3.51-1.74-58.34-29-61.6-30.77c-17.77-9.66-54.73-29.75-54.73-100.15V92.64h237.4
		v143.18c0,70.4-36.97,90.49-54.74,100.15c-3.27,1.78-58.43,29.19-61.6,30.77L1422.47,368z"/>
	<path class="st1" d="M1446.62,189.02V97.77h-48.3v91.25h-89.42v46.8l0,0c0,0.51,0.01,1,0.01,1.5h89.4v112.84
		c12.89,6.42,24.14,12.01,24.14,12.01c0,0,0.01,0,0.01,0s0.01,0,0.01,0c0,0,11.25-5.59,24.14-12.01V237.32h89.4
		c0-0.5,0.01-1,0.01-1.5v-46.8H1446.62z"/>
	<g>
		<rect x="1308.9" y="97.77" class="st7" width="89.42" height="91.25"/>
		<rect x="1446.62" y="97.77" class="st7" width="89.42" height="91.25"/>
		<path class="st7" d="M1398.32,237.32h-89.4c0.51,65.41,34.05,84.36,52.04,94.14c1.82,0.99,20.92,10.52,37.36,18.71V237.32z"/>
		<path class="st7" d="M1446.62,237.32v112.85c16.44-8.19,35.54-17.72,37.36-18.71c17.99-9.78,51.53-28.73,52.04-94.14H1446.62z"/>
	</g>
	<g>
		<path class="st6" d="M1477.33,213.88l1.85-2.2l-2.33-2.77l-2.33,2.77l1.85,2.2c0.03,1.11,0.09,10.78-5.61,14.24
			c0,0,1.9,0.36,4.45-0.13c0,0,0.44,2.52,1.64,5.4c1.2-2.88,1.64-5.4,1.64-5.4c2.55,0.49,4.45,0.13,4.45,0.13
			C1477.24,224.66,1477.31,214.98,1477.33,213.88z"/>
		<path class="st6" d="M1491.9,197.44l1.85-2.19l-2.33-2.77l-2.33,2.77l1.85,2.19c0.03,1.11,0.1,10.78-5.61,14.24
			c0,0,1.9,0.37,4.45-0.12c0,0,0.44,2.52,1.64,5.4c1.2-2.88,1.64-5.4,1.64-5.4c2.55,0.49,4.45,0.12,4.45,0.12
			C1491.8,208.22,1491.87,198.55,1491.9,197.44z"/>
		<path class="st6" d="M1506.46,213.88l1.85-2.2l-2.33-2.77l-2.33,2.77l1.85,2.2c0.03,1.11,0.1,10.78-5.61,14.24
			c0,0,1.9,0.36,4.45-0.13c0,0,0.44,2.52,1.64,5.4c1.2-2.88,1.64-5.4,1.64-5.4c2.55,0.49,4.45,0.13,4.45,0.13
			C1506.36,224.66,1506.43,214.98,1506.46,213.88z"/>
		<path class="st6" d="M1521.02,197.44l1.85-2.19l-2.33-2.77l-2.33,2.77l1.85,2.19c0.03,1.11,0.1,10.78-5.61,14.24
			c0,0,1.9,0.37,4.45-0.12c0,0,0.44,2.52,1.64,5.4c1.2-2.88,1.64-5.4,1.64-5.4c2.55,0.49,4.45,0.12,4.45,0.12
			C1520.92,208.22,1520.99,198.55,1521.02,197.44z"/>
		<path class="st6" d="M1462.77,197.44l1.85-2.19l-2.33-2.77l-2.33,2.77l1.85,2.19c0.03,1.11,0.1,10.78-5.61,14.24
			c0,0,1.9,0.37,4.45-0.12c0,0,0.44,2.52,1.64,5.4c1.2-2.88,1.64-5.4,1.64-5.4c2.55,0.49,4.45,0.12,4.45,0.12
			C1462.68,208.22,1462.75,198.55,1462.77,197.44z"/>
	</g>
	<g>
		<path class="st6" d="M1339.45,213.88l1.84-2.2l-2.33-2.77l-2.33,2.77l1.85,2.2c0.03,1.11,0.1,10.78-5.61,14.24
			c0,0,1.9,0.36,4.45-0.13c0,0,0.44,2.52,1.64,5.4c1.2-2.88,1.64-5.4,1.64-5.4c2.55,0.49,4.45,0.13,4.45,0.13
			C1339.36,224.66,1339.43,214.98,1339.45,213.88z"/>
		<path class="st6" d="M1354.02,197.44l1.84-2.19l-2.33-2.77l-2.33,2.77l1.85,2.19c0.03,1.11,0.1,10.78-5.61,14.24
			c0,0,1.9,0.37,4.46-0.12c0,0,0.44,2.52,1.64,5.4c1.2-2.88,1.64-5.4,1.64-5.4c2.55,0.49,4.45,0.12,4.45,0.12
			C1353.92,208.22,1353.99,198.55,1354.02,197.44z"/>
		<path class="st6" d="M1368.58,213.88l1.84-2.2l-2.33-2.77l-2.33,2.77l1.85,2.2c0.03,1.11,0.09,10.78-5.61,14.24
			c0,0,1.9,0.36,4.45-0.13c0,0,0.44,2.52,1.64,5.4c1.2-2.88,1.64-5.4,1.64-5.4c2.55,0.49,4.45,0.13,4.45,0.13
			C1368.48,224.66,1368.55,214.98,1368.58,213.88z"/>
		<path class="st6" d="M1383.14,197.44l1.85-2.19l-2.33-2.77l-2.33,2.77l1.85,2.19c0.03,1.11,0.1,10.78-5.61,14.24
			c0,0,1.9,0.37,4.45-0.12c0,0,0.45,2.52,1.64,5.4c1.2-2.88,1.64-5.4,1.64-5.4c2.55,0.49,4.45,0.12,4.45,0.12
			C1383.04,208.22,1383.11,198.55,1383.14,197.44z"/>
		<path class="st6" d="M1324.89,197.44l1.85-2.19l-2.33-2.77l-2.33,2.77l1.85,2.19c0.03,1.11,0.1,10.78-5.61,14.24
			c0,0,1.9,0.37,4.45-0.12c0,0,0.44,2.52,1.64,5.4c1.2-2.88,1.64-5.4,1.64-5.4c2.55,0.49,4.45,0.12,4.45,0.12
			C1324.8,208.22,1324.86,198.55,1324.89,197.44z"/>
	</g>
	<g>
		<path class="st6" d="M1423.07,250.94l1.84-2.19l-2.33-2.77l-2.33,2.77l1.85,2.19c0.03,1.11,0.09,10.78-5.61,14.24
			c0,0,1.9,0.37,4.45-0.13c0,0,0.44,2.52,1.64,5.4c1.2-2.88,1.64-5.4,1.64-5.4c2.55,0.49,4.46,0.13,4.46,0.13
			C1422.97,261.72,1423.04,252.04,1423.07,250.94z"/>
		<path class="st6" d="M1423.07,300.38l1.84-2.2l-2.33-2.77l-2.33,2.77l1.85,2.2c0.03,1.1,0.09,10.78-5.61,14.24
			c0,0,1.9,0.36,4.45-0.13c0,0,0.44,2.52,1.64,5.4c1.2-2.88,1.64-5.4,1.64-5.4c2.55,0.49,4.46,0.13,4.46,0.13
			C1422.97,311.16,1423.04,301.48,1423.07,300.38z"/>
		<g>
			<path class="st6" d="M1436.57,275.66l1.85-2.19l-2.33-2.77l-2.33,2.77l1.85,2.19c0.03,1.11,0.1,10.78-5.61,14.24
				c0,0,1.9,0.36,4.46-0.13c0,0,0.44,2.52,1.64,5.4c1.2-2.88,1.64-5.4,1.64-5.4c2.55,0.49,4.45,0.13,4.45,0.13
				C1436.48,286.44,1436.54,276.76,1436.57,275.66z"/>
			<path class="st6" d="M1409.41,275.66l1.85-2.19l-2.33-2.77l-2.33,2.77l1.85,2.19c0.03,1.11,0.1,10.78-5.61,14.24
				c0,0,1.9,0.36,4.45-0.13c0,0,0.44,2.52,1.64,5.4c1.2-2.88,1.64-5.4,1.64-5.4c2.55,0.49,4.45,0.13,4.45,0.13
				C1409.32,286.44,1409.39,276.76,1409.41,275.66z"/>
		</g>
	</g>
	<g>
		<g>
			<path class="st6" d="M1436.57,325.1l1.85-2.19l-2.33-2.77l-2.33,2.77l1.85,2.19c0.03,1.11,0.1,10.78-5.61,14.24
				c0,0,1.9,0.36,4.46-0.13c0,0,0.44,2.52,1.64,5.4c1.2-2.88,1.64-5.4,1.64-5.4c2.55,0.49,4.45,0.13,4.45,0.13
				C1436.48,335.88,1436.54,326.2,1436.57,325.1z"/>
			<path class="st6" d="M1409.41,325.1l1.85-2.19l-2.33-2.77l-2.33,2.77l1.85,2.19c0.03,1.11,0.1,10.78-5.61,14.24
				c0,0,1.9,0.36,4.45-0.13c0,0,0.44,2.52,1.64,5.4c1.2-2.88,1.64-5.4,1.64-5.4c2.55,0.49,4.45,0.13,4.45,0.13
				C1409.32,335.88,1409.39,326.2,1409.41,325.1z"/>
		</g>
	</g>
	<g>
		<path class="st6" d="M1423.07,138.34l1.84-2.2l-2.33-2.77l-2.33,2.77l1.85,2.2c0.03,1.1,0.09,10.78-5.61,14.24
			c0,0,1.9,0.36,4.45-0.13c0,0,0.44,2.52,1.64,5.4c1.2-2.88,1.64-5.4,1.64-5.4c2.55,0.49,4.46,0.13,4.46,0.13
			C1422.97,149.12,1423.04,139.44,1423.07,138.34z"/>
		<g>
			<path class="st6" d="M1436.57,113.62l1.85-2.2l-2.33-2.77l-2.33,2.77l1.85,2.2c0.03,1.1,0.1,10.78-5.61,14.24
				c0,0,1.9,0.36,4.46-0.13c0,0,0.44,2.52,1.64,5.4c1.2-2.88,1.64-5.4,1.64-5.4c2.55,0.49,4.45,0.13,4.45,0.13
				C1436.48,124.4,1436.54,114.72,1436.57,113.62z"/>
			<path class="st6" d="M1409.41,113.62l1.85-2.2l-2.33-2.77l-2.33,2.77l1.85,2.2c0.03,1.1,0.1,10.78-5.61,14.24
				c0,0,1.9,0.36,4.45-0.13c0,0,0.44,2.52,1.64,5.4c1.2-2.88,1.64-5.4,1.64-5.4c2.55,0.49,4.45,0.13,4.45,0.13
				C1409.32,124.4,1409.39,114.72,1409.41,113.62z"/>
		</g>
		<g>
			<path class="st6" d="M1436.57,163.06l1.85-2.19l-2.33-2.77l-2.33,2.77l1.85,2.19c0.03,1.11,0.1,10.78-5.61,14.24
				c0,0,1.9,0.36,4.46-0.13c0,0,0.44,2.52,1.64,5.4c1.2-2.88,1.64-5.4,1.64-5.4c2.55,0.49,4.45,0.13,4.45,0.13
				C1436.48,173.84,1436.54,164.17,1436.57,163.06z"/>
			<path class="st6" d="M1409.41,163.06l1.85-2.19l-2.33-2.77l-2.33,2.77l1.85,2.19c0.03,1.11,0.1,10.78-5.61,14.24
				c0,0,1.9,0.36,4.45-0.13c0,0,0.44,2.52,1.64,5.4c1.2-2.88,1.64-5.4,1.64-5.4c2.55,0.49,4.45,0.13,4.45,0.13
				C1409.32,173.84,1409.39,164.17,1409.41,163.06z"/>
		</g>
	</g>
	<g>
		<path class="st6" d="M1379.01,142.82l0.3,1.14c0.27,1.02,0.47,1.84,0.61,2.43c0.95,4.33,1.76,5.46,3.86,5.46
			c1.2,0,2.2-0.67,2.5-1.67l0.46-1.52c0.1-0.35,0.37-0.55,0.72-0.55c0.82,0,1.2,0.85,1.24,2.75c0.02,0.55,0.19,1.78,0.54,3.71
			c0.2,1.14,0.3,2.25,0.3,3.31c0,0.98-0.07,1.38-0.45,2.38c0.26,1.49,0.46,3.49,0.46,4.64c0,1.88-0.35,3.62-0.91,4.53
			c0.32,1.26,0.38,1.76,0.38,2.85c0,0.81-0.08,1.69-0.24,2.53c-0.33,1.82-0.4,2.28-0.4,2.62c0,0.34,0.07,0.69,0.18,1.02
			c0.15,0.44,0.23,0.74,0.23,0.91c0,0.21-0.1,0.38-0.23,0.38l-1.51-0.61l-1.67-0.91c-0.54-0.3-0.91-0.59-1.74-1.36
			c-1.47,1.33-1.91,1.52-5.76,2.58c-0.77,0.2-1.34,0.44-1.67,0.68c-0.47,0.34-0.83,0.52-1.01,0.52c-0.65,0-0.97-1.05-0.97-3.21
			c0-1.6,0.16-3.1,0.46-4.22c-1.13-0.43-2.09-0.68-2.71-0.68c-0.12,0-0.5,0.05-1.16,0.15l-0.28,0.03c-0.22,0-0.41-0.33-0.41-0.73
			c0-0.3,0.21-1.03,0.47-1.64l0.75-1.82c0.28-0.66,0.9-1.42,1.82-2.19c0.75-0.64,1.43-1.03,1.97-1.15l2.73-0.52
			c1.62-0.32,2.59-1.18,2.59-2.3c0-1.09-0.73-1.83-2.36-2.4l-3.26-1.14c-0.84-0.29-1.83-0.78-2.96-1.44
			c-1.81-1.07-2.11-1.21-2.54-1.21c-0.65,0-1.03,0.49-1.03,1.35c0,1.35,0.88,2.29,2.13,2.29c0.25,0,0.52-0.06,0.76-0.15
			c0.37-0.15,0.63-0.23,0.78-0.23c0.34,0,0.53,0.2,0.53,0.58l-0.02,0.33l-0.15,1.29c-0.13,1.1-0.84,2.44-2.43,4.55l-0.68,0.91
			c-0.62,2.44-2.14,4.66-4.09,5.99c-0.5,0.33-0.78,0.54-0.84,0.6c-0.07,0.07-0.27,0.43-0.61,1.06c-0.15,0.29-0.66,0.9-1.51,1.82
			c-0.64,0.7-1.28,1.27-1.9,1.74c-0.85,0.64-1.36,1.11-1.51,1.37l-0.76,1.29c-0.14,0.23-0.37,0.38-0.61,0.38
			c-0.67,0-1.29-0.7-1.67-1.89c-0.27-0.89-0.53-1.14-1.1-1.14c-0.3,0-0.74,0.08-1.32,0.23l-1.06,0.15h-2.73
			c-1.36,0-3.29,0.36-4.17,0.77c-0.35,0.16-0.61,0.24-0.78,0.24c-0.19,0-0.3-0.1-0.51-0.47c-0.13-0.25-0.17-0.37-0.17-0.61
			c0-1.39,0.99-3.99,2.28-6.07c0.83-1.31,1.09-1.61,2.05-2.42c-0.31-1.28-1.13-2.28-2.12-2.57l-1.29-0.38
			c-0.18-0.05-0.31-0.21-0.31-0.37c0-0.39,0.62-0.93,1.75-1.53c1.48-0.78,2.97-1.21,4.16-1.21c1.26,0,2.48,0.5,3.87,1.6
			c2.06,1.6,2.6,1.9,3.61,1.9c1.62,0,3.16-1.48,3.16-3.04c0-1.04-0.55-2.15-2-4.02c-2.11-2.73-2.74-4.15-2.74-6.16
			c0-1.24,0.38-2.84,0.85-3.54l0.76-1.13c0.16-0.26,0.25-0.51,0.25-0.73c0-0.51-0.58-0.87-1.37-0.87c-1.2,0-3.5,0.85-5.33,1.98
			c-0.91,0.56-1.53,1.21-1.53,1.62c0,0.24,0.12,0.45,0.31,0.58l0.84,0.53c0.1,0.06,0.16,0.18,0.16,0.32c0,0.11-0.13,0.35-0.32,0.59
			l-1.52,1.97c-0.78,1.02-1.99,2.28-3.18,3.33c-0.4,0.35-0.65,0.6-0.76,0.76c-0.01,0.01-0.21,0.39-0.6,1.14
			c-0.54,1.01-1.98,2.48-3.34,3.41c-0.56,0.38-0.91,0.66-1.06,0.83c-0.11,0.13-0.31,0.48-0.61,1.06c-0.19,0.37-0.52,0.9-0.99,1.59
			c-0.74,1.1-1.35,1.88-1.81,2.35l-2.13,2.12c-0.65,0.65-1.22,1.92-2.12,4.69c-0.53,1.68-1.02,2.66-1.3,2.66
			c-0.13,0-0.34-0.17-0.59-0.46c-1.5-1.71-2.79-2.73-3.47-2.73c-0.16,0-0.44,0.13-0.84,0.38c-0.56,0.35-1.25,0.61-2.05,0.76
			l-2.8,0.52c-2.12,0.4-2.96,0.86-4.17,2.28c-0.29,0.33-0.53,0.53-0.66,0.53c-0.23,0-0.4-0.38-0.4-0.88l0.08-0.71l0.38-2.04
			c0.4-2.19,0.9-3.82,1.51-4.93l1.28-2.35c0.26-0.46,0.38-0.88,0.38-1.23c0-1.75-1.8-3.35-4.01-3.55c-0.56-0.05-0.77-0.18-0.77-0.49
			c0-0.38,0.62-1.14,1.46-1.78c1.52-1.15,3.5-1.97,4.77-1.97c0.77,0,1.95,0.32,3.41,0.91l1.67,0.68c0.62,0.26,1.19,0.39,1.69,0.39
			c1.77,0,3.48-1.61,5.58-5.23c0.95-1.64,1.36-2.83,1.36-3.89c0-1.91-0.91-3.08-2.4-3.08c-1.14,0-2.38,0.54-3.28,1.43
			c-0.76,0.77-1.16,1.58-1.16,2.35l0.03,0.84l0.01,0.19c0,0.71-0.24,1.1-0.66,1.1c-0.72,0-1.76-1.02-4.73-4.63
			c-2.22-2.69-2.71-3.84-2.81-6.52c-2.57-3.28-3.21-4.67-3.21-7l0.1-1.56c-1.78-2.14-2.28-3.31-2.28-5.27c0-0.72,0.12-1.14,0.54-2
			c-0.9-1.33-1.2-1.93-1.44-2.96l-0.38-1.6c-0.26-1.08-0.67-2.02-1.21-2.8c-0.69-0.98-0.76-1.11-0.76-1.45
			c0-0.88,0.6-1.23,3.26-1.88c-0.11-0.74-0.16-1.3-0.16-1.68c0-0.44,0.05-0.87,0.23-1.81l0.53-2.81c0.21-1.13,0.32-1.94,0.32-2.43
			c0-0.53-0.08-0.9-0.55-2.42c-0.26-0.86-0.49-1.45-0.68-1.75c-0.25-0.39-0.46-0.86-0.46-1.04c0-0.26,0.19-0.42,0.52-0.42
			c0.76,0,2.74,1.2,4.79,2.9c4.35,3.6,5.25,5.04,5.84,9.39c0.04,0.34,0.12,0.85,0.23,1.52c2.09,1.53,3.18,3.38,3.18,5.37
			c0,1.56-0.57,3.39-1.52,4.86l-1.52,2.35c-0.45,0.69-0.68,1.55-0.68,2.51c0,1.43,0.41,2.74,1.44,4.54
			c1.16,2.05,2.15,2.88,3.38,2.88c2,0,3.75-3.48,3.75-7.43v-0.53l-0.01-1.36c0-0.77,0.04-1.54,0.17-2.5
			c0.14-1.18,0.21-1.91,0.22-2.2l0.08-1.82l0.02-1.2c0-0.42-0.22-0.85-0.79-1.45l-1.66-1.82c-2.41-2.63-3.74-5.1-3.74-6.95
			c0-2.3,1.66-4.03,3.87-4.03c0.44,0,0.84,0.07,1.61,0.3v-0.52c0-3.34,0.69-5.81,1.6-5.81l0.36,0.12l1.37,1.21l1.66,1.06l0.46,0.45
			c0-0.94,0.05-1.04,0.99-2.13c0.23-0.26,0.57-0.74,1.06-1.44c0.38-0.56,0.64-0.94,0.75-1.13c0.12-0.2,0.25-0.43,0.38-0.68
			c0.2-0.39,0.4-0.57,0.63-0.57c0.21,0,0.38,0.27,0.66,1.1c0.18,0.51,0.3,0.66,1.6,1.81c0.45,0.41,0.76,0.74,0.9,0.99
			c0.13,0.21,0.33,0.71,0.61,1.51c0.05,0.14,0.12,0.34,0.23,0.61c0.56-0.71,0.84-0.97,1.51-1.37l1.14-0.68
			c0.42-0.26,0.72-0.39,0.84-0.39c0.09,0,0.24,0.18,0.37,0.46c0.12,0.27,0.32,0.64,0.61,1.14c0.8,1.41,1.08,2.08,1.08,2.74
			l-0.02,0.75v0.91c2.49,0.78,3.42,2.07,3.42,4.75c0,1.93-1.01,4.14-2.96,6.47c-1.3,1.55-1.45,1.86-1.45,2.94
			c0,5.61,3.9,8.86,10.77,8.96l5.08,0.08c3.27,0.05,5.22,0.37,8.26,1.36c3.61,1.18,4.65,1.45,5.7,1.45c0.35,0,0.69-0.11,0.98-0.31
			c0.28-0.19,0.45-0.45,0.45-0.67c0-1.06-1.86-1.91-7.95-3.64c-12.5-3.54-17.81-8.57-17.81-16.85c0-6.4,5.32-11.35,12.2-11.35
			c2.22,0,5.62,0.58,7.58,1.3l3.1,1.14c0.57,0.21,1.12,0.32,1.64,0.32c1.06,0,1.59-0.88,1.63-2.67c0.02-0.95,0.24-1.29,0.86-1.29
			c0.87,0,2.22,1.09,3.46,2.8c1.25,1.73,2.05,3.68,2.05,4.97c0,1.73-0.81,2.92-2.66,3.97c-1.7,2.59-3.79,3.79-6.61,3.79
			c-2.19,0-5.3-1.24-10.45-4.16c-1.79-1.02-2.71-1.36-3.65-1.36c-1.34,0-2.21,0.77-2.21,1.97c0,1.09,0.85,1.8,3.06,2.57
			c3.27,1.15,4.08,1.59,5.38,2.96c3.86,0.67,5.54,1.34,7.96,3.18c6.65,2.11,10.78,6.65,10.78,11.85c0,5.06-3.42,8.7-8.18,8.7
			C1381.46,143.28,1380.76,143.2,1379.01,142.82"/>
		<path class="st8" d="M1386.51,176.02c-0.21-0.91-0.28-1.38-0.28-1.83l0.05-0.6l0.23-1.21l0.08-0.98c0-1.05-0.18-1.8-0.53-2.27
			l-0.91-1.21c-0.3-0.4-0.56-0.89-0.75-1.45c-0.11-0.27-0.16-0.49-0.16-0.64c0-0.34,0.21-0.56,0.55-0.56c0.2,0,0.28,0.04,0.97,0.44
			c0.29,0.17,0.55,0.26,0.74,0.26c0.45,0,0.7-0.73,0.7-2.02c0-1.46-0.13-2.28-0.45-2.64l-1.14-1.29l-0.98-0.83
			c-0.24-0.21-0.4-0.46-0.4-0.66c0-0.33,0.25-0.55,0.62-0.55c0.34,0,1.07,0.16,1.68,0.38l0.35,0.07c0.31,0,0.43-0.18,0.43-0.63
			l-0.02-0.28l-0.23-1.6l-0.45-1.66c-0.15-0.54-0.23-0.63-0.57-0.63l-0.19,0.02l-1.89,0.37l-0.3,0.03c-2.48,0-5.11-2.1-5.91-4.73
			l-1.51-4.93c-0.47-1.52-1.6-2.96-3.64-4.63c-0.61-0.5-1.14-0.79-1.51-0.82l-1.37-0.16c-0.25-0.03-0.41-0.17-0.41-0.38
			c0-0.31,0.29-0.45,0.94-0.45l2.5,0.22c0.91,0.09,2.29,0.44,4.09,1.06c2.27,0.78,3.8,1.12,5.09,1.12c3.79,0,6.06-2.05,6.06-5.48
			c0-2.35-1.23-5-3.1-6.71c-1.07-0.95-2.13-1.67-2.5-1.67c-0.21,0-0.38,0.18-0.38,0.4l0.08,0.97l0.01,0.09
			c0,0.38-0.22,0.67-0.52,0.67c-0.38,0-0.81-0.5-1.31-1.52c-1.43-2.98-3.71-4.76-6.06-4.76c-0.4,0-0.68,0.17-0.68,0.4
			c0,0.15,0.12,0.53,0.37,1.1l0.61,1.36c0.16,0.36,0.25,0.6,0.25,0.7c0,0.09-0.15,0.17-0.32,0.17c-0.35,0-0.9-0.31-1.29-0.71
			l-1.13-1.21l-0.99-1.52c-0.79-1.21-1.42-1.76-3.11-2.65c-0.94-0.5-1.54-0.83-1.82-0.99c-0.35-0.2-0.67-0.31-0.94-0.31
			c-0.27,0-0.41,0.13-0.41,0.39c0,0.24,0.1,0.53,0.29,0.82c0.56,0.87,0.78,1.3,0.78,1.52c0,0.24-0.18,0.45-0.39,0.45
			c-0.58,0-1.81-1.19-2.89-2.8c-0.89-1.33-1.37-2.82-1.37-4.26c0-3.26,2.38-5.68,5.6-5.68c1.66,0,3.76,0.7,5.7,1.9l3.56,2.2
			c1.24,0.77,3.06,1.37,4.14,1.37c0.48,0,1.48-0.17,2.22-0.38c0.33-0.09,0.64-0.21,0.91-0.38c0.21-0.13,0.36-0.3,0.36-0.43
			c0-0.15-0.08-0.29-0.21-0.33l-0.45-0.15l-1.67-0.31c-0.43-0.08-1.12-0.33-2.04-0.76c-2-0.91-3.27-1.55-3.79-1.89
			c-1.25-0.82-2.08-1.29-2.5-1.43c-0.62-0.21-1-0.49-1-0.72c0-0.23,0.12-0.33,0.34-0.33c0.21,0,0.5,0.1,0.81,0.29
			c1.12,0.7,2.09,1.06,2.8,1.06l3.26,1.14c1.62,0.57,3.98,1.06,5.04,1.06c1.37,0,2.49-1.12,2.49-2.5c0-0.89-0.53-2.23-1.31-3.33
			c-0.18-0.25-0.36-0.39-0.51-0.39c-0.31,0-0.47,0.22-0.47,0.61l0.07,0.61l0.12,0.9c0,0.98-0.66,1.76-1.5,1.76
			c-0.31,0-0.71-0.08-1.19-0.24l-4.92-1.59c-4.13-1.33-6.04-1.75-8.11-1.75c-5.89,0.01-10.39,4.05-10.39,9.38
			c0,6.03,4.24,9.92,14.71,13.51c10.3,3.54,11.75,4.4,11.75,7.05c0,1.52-1.54,2.88-3.26,2.88c-0.7,0-1.31-0.06-1.82-0.15
			c-0.35-0.07-2.07-0.48-5.15-1.21c-3.11-0.75-5.94-1.07-9.43-1.07c-7.44,0-11.56,1.3-15.13,4.78c-0.89,0.87-1.19,1-2.21,1
			l-0.51-0.02l-1.06-0.07l-0.14,0c-0.89,0-1.55,0.41-2.14,1.37c-0.8,1.28-1.23,1.97-1.29,2.05c-0.21,0.29-0.53,0.45-0.86,0.45
			c-0.68,0-1.09-0.51-1.86-2.35c-0.38-0.89-0.92-1.67-1.59-2.28l-1.52-1.36c-0.25-0.22-0.38-0.42-0.38-0.58
			c0-0.17,0.11-0.41,0.3-0.71c0.73-1.06,0.98-1.53,1.06-1.98c0.2-1.01,0.23-1.06,0.65-1.06c0.47,0,0.6,0.47,0.64,2.2
			c0.01,0.5,0.21,1.2,0.61,2.04l0.83,1.82c0.1,0.24,0.37,0.38,0.68,0.38c0.78,0,1.78-1.84,2.04-3.79c0.22-1.63,0.39-2.13,0.73-2.13
			c0.14,0,0.26,0.06,0.33,0.16c0.08,0.11,0.31,0.56,0.68,1.36c0.2,0.42,0.53,0.81,0.99,1.14c0.44,0.32,0.74,0.5,0.91,0.53l0.09,0.01
			c0.61,0,0.82-0.4,0.97-1.83l0.08-0.75l-0.15-1.07l-0.11-0.73c0-0.49,0.17-0.78,0.45-0.78c0.17,0,0.37,0.11,0.57,0.3l0.76,0.76
			c0.5,0.5,1.01,0.75,1.5,0.75c0.63,0,1.02-0.26,1.02-0.67c0-0.36-0.14-0.72-0.7-1.75l-0.53-0.98c-0.61-1.14-1.09-1.6-1.66-1.6
			l-0.77,0.07l-0.9,0.38c-0.28,0.11-0.48,0.18-0.6,0.18c-0.14,0-0.24-0.13-0.24-0.3c0-0.68,0.44-1.75,1.29-3.09
			c0.6-0.96,1.01-3.01,1.21-5.95c0.26-3.96,0.79-6.52,1.34-6.52c0.38,0,0.52,0.32,0.52,1.17l-0.04,1.04l-0.03,0.73
			c0,0.71,0.16,1.28,0.34,1.28c0.65,0,1.42-0.97,2.03-2.53c0.26-0.66,0.39-1.18,0.39-1.55l-0.08-0.35l-1.51-2.81l-1.52-0.45
			c-0.28-0.08-0.47-0.21-0.53-0.34v-1.02v-0.83l-0.15-0.92l-0.31-0.76l-0.37-0.83c-1.66,0.9-2.45,1.49-3.03,2.27
			c-0.59,0.79-0.93,1.1-1.22,1.1c-0.2,0-0.37-0.19-0.37-0.4c0-0.19,0.07-0.59,0.23-1.23l0.05-0.42c0-1.63-0.99-3.23-2.62-4.27
			l-0.45,0.61l-0.53,0.76l-0.91,1.06c-0.29,0.34-0.55,0.85-0.76,1.51c-0.1,0.32-0.15,0.61-0.15,0.86l0,0.12l0.01,0.28
			c0,0.63-0.07,0.79-0.35,0.79l-0.19-0.08l-0.53-0.75l-0.83-0.91l-1.29-0.83l-0.68-0.53c-0.14,0.3-0.24,0.53-0.3,0.68
			c-0.24,0.53-0.36,0.94-0.38,1.22l-0.08,1.21l-0.07,1.28l0.01,0.22c0,0.66-0.16,0.92-0.56,0.92c-0.13,0-0.52-0.16-0.89-0.38
			c-0.33-0.2-0.72-0.31-1.1-0.31c-1.18,0-1.94,0.82-1.94,2.09c0,1.51,0.45,2.97,1.22,3.97l0.98,1.29c0.27,0.34,0.77,0.64,0.8,0.45
			l0.19-1.59l-0.23-1.29l-0.05-0.58c0-0.49,0.17-0.79,0.45-0.79c0.43,0,0.69,0.47,0.96,1.75l0.6,2.81l0.61,3.56
			c0.16,0.96,0.47,1.97,0.91,3.03c0.6,1.43,1.03,2.32,1.29,2.65c0.84,1.08,0.93,1.23,0.93,1.47c0,0.19-0.15,0.35-0.33,0.35
			c-0.16,0-0.4-0.08-0.68-0.23c-0.26-0.14-0.57-0.24-0.91-0.3l-0.59-0.09c-1.22,0-1.47,1.04-1.47,6.1c0,3.09,0.65,7.28,1.45,9.29
			l1.59,4.02c0.25,0.63,0.38,1.27,0.38,1.88c0,5.53-7.33,14.2-15.38,18.2c-3,1.48-3.95,2.91-4.17,6.21l-0.07,0.99
			c1.22-0.64,1.72-0.85,2.57-1.06c2.26-0.59,2.7-0.87,3.04-1.97l0.3-0.99c0.12-0.37,0.31-0.51,2.05-1.44
			c0.6-0.31,1.02-0.66,1.22-0.98c0.38-0.64,0.7-0.98,0.9-0.98c0.19,0,0.29,0.09,0.29,0.24l-0.06,0.27l-0.75,2.17l-0.09,0.53
			c0,1.6,0.88,2.91,2.52,3.75c0.27-1.75,0.45-2.35,0.99-3.18l1.36-2.12c0.51-0.79,0.72-1.75,0.72-3.24c0-0.85-0.07-1.72-0.19-2.37
			l-0.05-0.6c0-0.38,0.2-0.61,0.53-0.61c0.26,0,0.47,0.09,0.5,0.22l0.31,1.44c0.06,0.31,0.37,0.53,0.74,0.53
			c0.73,0,1.68-0.95,2.67-2.65c0.37-0.64,0.56-1.33,0.56-2.01l-0.11-1.03l-0.23-1.13l-0.02-0.22c0-0.5,0.28-0.85,0.67-0.85
			c0.17,0,0.31,0.06,0.34,0.15l0.45,1.75c0.15,0.58,0.56,0.99,0.98,0.99c0.51,0,1.38-0.88,1.9-1.9c0.46-0.9,0.68-1.93,0.68-3.1
			c0-1.62,0.17-2.08,0.76-2.08c0.19,0,0.34,0.07,0.38,0.18l0.3,0.99c0.12,0.36,0.33,0.6,0.54,0.6c0.31,0,1.16-0.92,1.73-1.89
			c0.15-0.25,0.23-0.5,0.23-0.7c0-0.33-0.22-0.65-0.68-1.04c-0.79-0.65-0.84-0.75-0.84-1.74c0-0.95,0.15-1.45,0.84-2.65
			c0.37-0.65,0.69-1.25,0.98-1.82c0.96-1.88,1.3-2.36,1.65-2.36c0.29,0,0.55,0.32,0.55,0.67c0,0.2-0.05,0.41-0.16,0.63
			c-0.2,0.43-0.31,0.73-0.31,0.9c0,0.3,0.25,0.55,0.56,0.55c0.35,0,0.81-0.16,1.34-0.45c0.2-0.12,0.91-0.39,2.12-0.84l2.51-0.91
			c0.41-0.15,0.92-0.23,1.52-0.23c0.47,0,0.92,0.05,1.36,0.15c0.89,0.2,1.48,0.31,1.75,0.31c0.68,0,1.29-0.59,1.29-1.26
			c0-0.51-0.52-1.5-1.22-2.3c-0.26-0.3-0.39-0.53-0.39-0.69l0.09-0.3c0.1-0.19,0.25-0.3,0.4-0.3c0.51,0,1.71,1.28,2.78,2.96
			c6.52,10.27,8.86,12.76,13.26,14.09c4.46,1.36,5.62,2.4,5.62,5.05c0,1.45-0.74,3.13-2.36,5.41c-3.3,4.62-4.1,6.48-4.1,9.53l0,0.56
			c0.37-0.16,0.65-0.29,0.83-0.38c0.62-0.31,1.03-0.5,1.21-0.53l1.89-0.38c0.57-0.12,1.08-0.85,1.08-1.55l-0.01-0.19l-0.23-1.67
			l-0.02-0.22c0-0.59,0.29-1.27,0.7-1.6c0.12-0.09,0.26-0.16,0.39-0.16c0.21,0,0.47,0.2,0.59,0.47l1.21,2.57
			C1384.36,174.8,1384.93,175.29,1386.51,176.02"/>
		<path class="st8" d="M1325.41,121.07c-0.55,0-0.84,0.48-0.89,1.52l-0.15,1.44c-0.18,1.34-0.19,1.48-0.19,1.83
			c0,1.08,0.32,1.89,0.76,1.89c0.49,0,1.24-0.93,1.62-1.98c0.23-0.64,0.34-1.2,0.34-1.77c0-0.5-0.12-1.11-0.34-1.71
			C1326.28,121.51,1325.86,121.07,1325.41,121.07"/>
		<path class="st8" d="M1319.13,110.01l1.06,1.06c1.73,1.73,2.58,4.6,2.58,8.68c0,0.9-0.04,1.5-0.24,3.9
			c-0.1,1.27-0.15,2.31-0.15,3.12c0,9.4,3.05,16.51,7.1,16.51c1.27,0,2.1-0.61,3.29-2.42c0.19-0.3,0.5-0.55,0.68-0.55
			c0.24,0,0.36,0.2,0.37,0.63l0.15,1.67l0.15,1.44l0.15,1.6l0.23,1.44l0.02,0.18c0,0.42-0.18,0.66-0.55,0.72l-1.36,0.23
			c-0.68,0.11-1.4,0.39-2.12,0.83c-1.14,0.69-1.83,1.21-1.97,1.51l-0.83,1.75c-0.12,0.22-0.3,0.38-0.47,0.38
			c-0.44,0-1.15-0.77-1.96-2.12c-0.69-1.15-1.11-2.09-1.11-2.48c0-0.24,0.19-0.33,0.66-0.33h0.15l0.98,0.08l0.6-0.08l0.69-0.07
			c0.26-0.03,0.46-0.26,0.46-0.53c0-0.2-0.12-0.38-0.31-0.45l-3.41-1.45c-1.05-0.44-1.96-1.32-2.58-2.49
			c-0.94-1.8-1.37-2.87-1.37-3.41c0-0.47,0.24-0.78,0.62-0.78c0.13,0,0.31,0.06,0.53,0.17c0.34,0.16,0.78,0.3,0.96,0.3
			c0.3,0,0.56-0.23,0.56-0.48c0-0.21-0.27-0.57-0.61-0.82c-2.85-2.06-4.48-4.44-4.48-6.49c0-0.57,0.14-0.85,0.44-0.85l0.55,0.06
			l0.98,0.15h0.05c0.37,0,0.65-0.24,0.65-0.58c0-0.21-0.25-0.5-0.63-0.7c-0.67-0.38-1.08-0.61-1.21-0.68
			c-0.42-0.26-0.78-0.62-1.06-1.07c-0.12-0.2-0.55-1-1.29-2.42l-1.06-2.05c-0.4-0.76-0.63-1.2-0.69-1.29
			c-0.07-0.11-0.22-0.31-0.46-0.61c0.99-0.48,1.53-0.62,2.36-0.62c1.03,0,1.69,0.68,2.42,2.51c0.46,1.16,0.96,1.94,1.25,1.94
			c0.14,0,0.2-0.25,0.2-0.89c0-0.75-0.11-1.51-0.32-2.26c-0.18-0.69-0.26-1.26-0.23-1.67l-0.15-1.06l-0.91-0.45
			c-0.2-0.09-0.44-0.36-0.69-0.75c-0.42-0.66-0.61-1.22-0.61-1.72c0-0.33,0.08-0.84,0.23-1.38c0.77-2.89,1-4.02,1-4.96l-0.01-0.65
			L1319.13,110.01z"/>
		<path class="st8" d="M1328.23,164.65c-1.06-0.15-1.55-0.27-2.2-0.53c-0.18-0.07-0.66-0.27-1.44-0.6c-1.22-0.52-2.14-0.77-2.9-0.77
			c-1.15,0-2.08,0.39-3.16,1.3l0.68,0.53l1.51,1.06l1.44,1.14c0.37,0.3,0.81,0.46,1.25,0.46
			C1324.9,167.23,1326.19,166.54,1328.23,164.65"/>
		<path class="st8" d="M1357.41,178.45c0.41-0.94,0.61-1.2,1.52-1.97c2.12-1.82,3.1-3.17,3.1-4.24v-0.76v-0.91
			c0-0.97,0.17-1.29,0.67-1.29c0.23,0,0.41,0.09,0.47,0.23l0.38,0.9c0.09,0.21,0.34,0.35,0.64,0.35c0.29,0,0.73-0.35,1.11-0.88
			l0.76-1.06c0.38-0.53,0.55-0.99,0.55-1.48c0-0.3-0.06-0.59-0.17-0.87c-0.06-0.15-0.24-0.55-0.53-1.21
			c-0.18-0.39-0.31-0.91-0.31-1.19c0-0.5,0.25-0.79,0.68-0.79c0.22,0,0.42,0.09,0.54,0.24l0.61,0.75c0.13,0.16,0.35,0.27,0.57,0.27
			c0.28,0,0.6-0.27,0.79-0.64l0.61-1.21c0.16-0.31,0.24-0.54,0.24-0.68c0-0.24-0.25-0.48-0.69-0.69l-0.99-0.46
			c-1.3-0.6-2.28-2.68-2.28-4.86c0-0.29,0.06-0.58,0.16-0.82l0.53-1.29c0.15-0.36,0.23-0.77,0.23-1.21c0-0.79-0.26-1.58-0.76-2.35
			c-0.61-0.93-0.94-1.46-0.99-1.59c-0.45-1.2-0.68-1.53-1.05-1.53l-0.38,0.09l-0.53,0.3l-0.84,0.46l-0.98,1.22l-1.06,0.52
			c-0.64,0.32-1.23,1.67-1.23,2.78c0,1.97,0.22,2.51,2.82,7c1.01,1.73,1.54,3.23,1.54,4.33c0,3.1-2.78,5.32-8.36,6.65l-3.48,0.83
			c-2.57,0.62-4.08,2.38-4.62,5.38c1.06-0.55,1.48-0.63,3.36-0.63l1.12,0.01l0.18,0c1.01,0,1.15-0.07,1.79-0.99
			c0.75-1.05,1.49-1.67,2.5-2.11l1.21-0.54l0.99-0.53l0.3-0.08c0.27,0,0.42,0.11,0.42,0.31c0,0.3-0.28,0.79-0.72,1.28
			c-0.87,0.97-1.21,1.78-1.21,2.94C1356.57,177.18,1356.75,177.61,1357.41,178.45"/>
		<path class="st8" d="M1347.86,166.7c0.87,0.54,1.76,1.33,2.28,2.05c0.72,0.99,0.83,1.06,1.54,1.06c0.31,0,0.68-0.05,1.11-0.16
			l0.68-0.15c1.25-0.24,1.68-0.42,1.68-0.73c0-0.18-0.14-0.42-0.38-0.63l-0.83-0.76l-0.83-0.76c-0.54-0.49-1.59-0.85-2.5-0.85
			C1349.68,165.77,1349.15,165.95,1347.86,166.7"/>
		<path class="st8" d="M1372.41,170.79l0.45-0.08l0.69-0.07l0.68,0.07l0.33,0.02c1.68,0,3.3-1.43,3.3-2.93
			c0-0.52-0.47-0.81-1.34-0.81C1374.49,167,1373.21,168.17,1372.41,170.79"/>
		<path class="st6" d="M1344.15,118.43c0.08,0.7,0.45,1.28,0.82,1.28c0.32,0,0.69-0.84,1.47-2.17c1.07-1.82,2.1-3.59,2.1-4.56
			c0-0.32-0.16-0.57-0.38-0.57l-0.08,0.02l-0.83,0.76c-0.6,0.55-1.08,0.8-2.58,1.36c-0.86,0.33-1.16,0.67-1.16,1.29l0.11,0.61
			l0.38,1.06L1344.15,118.43z"/>
		<path class="st6" d="M1339.52,114.48l1.28,0.69c0.35,0.19,0.55,0.43,0.55,0.73l-0.09,0.48c-0.19,0.64-0.04,1.35-0.05,1.62
			c-0.07,1.36-1.09,1.34-1.51,1.34c-0.25,0-0.12-0.16-0.71-0.84l-1.67-1.89c-0.51-0.58-0.96-1.91-1.14-3.4l-0.01-0.2
			c0-0.41,0.13-0.57,0.46-0.57c0.2,0,0.58,0.17,0.84,0.39L1339.52,114.48z"/>
		<path class="st6" d="M1342.47,122.44l-0.41,0l-0.88-0.08c-0.02-0.01-0.32-0.19-0.91-0.54c-0.34-0.2-0.72-0.3-1.08-0.3
			c-0.69,0-1.13,0.38-1.13,0.95c0,0.63,0.31,1.66,1,3.37l0.99,2.42c0.86,2.13,1.7,3.03,2.82,3.03c1,0,1.13-0.97,1.8-2.65
			c1.51-3.81,2.36-4.37,2.36-5.72c0-0.92-0.2-1.17-1.04-1.17l-0.71-0.17l-1.21,0.77L1342.47,122.44z"/>
		<path class="st8" d="M1342.4,124.56h-0.99c-0.14,0-0.29,0.08-0.38,0.23l-0.15,0.38l0.38,1.82l0.3,1.59
			c0.17,0.88,0.49,1.22,1.14,1.22c0.74,0,1.2-0.51,1.29-1.44l0.15-1.67c0.1-1.11,0.15-1.69,0.15-1.73c0-0.16-0.08-0.33-0.23-0.46
			c-0.11-0.1-0.25-0.16-0.38-0.16l-0.07,0.01L1342.4,124.56z"/>
	</g>
	<g>
		<path class="st6" d="M1520.42,142.82l0.31,1.14c0.28,1.02,0.47,1.84,0.61,2.43c0.95,4.33,1.75,5.46,3.86,5.46
			c1.2,0,2.2-0.67,2.5-1.67l0.45-1.52c0.1-0.35,0.37-0.55,0.72-0.55c0.83,0,1.26,0.91,1.33,2.75c0.02,0.7,0.18,1.94,0.45,3.71
			c0.21,1.28,0.31,2.45,0.31,3.51c0,0.77-0.09,1.22-0.45,2.18l0.15,0.91c0.26,1.49,0.32,2.08,0.32,2.78c0,3.25-0.16,4.21-0.92,5.48
			c0.32,1.24,0.4,1.83,0.4,2.72c0,0.57-0.08,1.39-0.24,2.67l-0.31,2.27l0.08,1.36c0.2,0.5,0.3,0.81,0.3,0.91
			c0,0.21-0.13,0.38-0.3,0.38l-1.51-0.61l-1.67-0.91c-0.54-0.3-0.92-0.59-1.74-1.36c-1.47,1.3-1.68,1.42-3.42,1.89
			c-2.51,0.69-3.44,1.01-3.94,1.37c-0.49,0.34-0.85,0.52-1.05,0.52c-0.59,0-1-1.14-1-2.81c0-2.43,0.14-3.68,0.53-4.62
			c-1.48-0.5-2.22-0.68-2.76-0.68c-0.2,0-0.32,0.01-1.11,0.15l-0.34,0.03c-0.22,0-0.35-0.27-0.35-0.72c0-0.74,0.52-2.22,1.22-3.47
			c0.95-1.69,2.52-3.1,3.71-3.34l2.73-0.52c1.62-0.32,2.58-1.18,2.58-2.3c0-1.09-0.71-1.81-2.36-2.4l-3.18-1.14
			c-1.07-0.38-2.09-0.86-3.03-1.44c-0.8-0.49-1.36-0.82-1.66-0.99c-0.28-0.15-0.56-0.22-0.83-0.22c-0.67,0-1.09,0.49-1.09,1.3
			c0,1.28,1,2.34,2.2,2.34c0.27,0,0.53-0.06,0.77-0.15c0.35-0.15,0.58-0.23,0.7-0.23c0.35,0,0.59,0.33,0.59,0.81
			c0,1.35-0.84,3.68-1.74,4.79l-0.91,1.14l-0.68,0.91c-0.25,1.95-2.17,4.75-4.09,5.99c-0.47,0.3-0.75,0.5-0.84,0.6
			c-0.06,0.07-0.26,0.43-0.6,1.06c-0.16,0.29-0.67,0.9-1.52,1.82c-0.64,0.69-1.27,1.27-1.89,1.74c-0.85,0.64-1.36,1.11-1.51,1.37
			l-0.76,1.29c-0.15,0.26-0.35,0.39-0.59,0.39c-0.68,0-1.3-0.71-1.68-1.91c-0.27-0.89-0.52-1.14-1.1-1.14
			c-0.29,0-0.74,0.08-1.33,0.23l-1.06,0.15h-2.66c-1.43,0-3.35,0.34-4.25,0.77c-0.34,0.16-0.61,0.24-0.78,0.24
			c-0.39,0-0.59-0.39-0.59-1.16c0-2.4,1.85-6.05,4.26-8.41c-0.36-1.39-1.09-2.33-2.05-2.57c-0.86-0.23-1.32-0.36-1.37-0.38
			c-0.14-0.07-0.23-0.21-0.23-0.36c0-0.48,0.54-0.96,1.75-1.54c2.15-1.02,2.78-1.21,3.98-1.21c1.37,0,2.53,0.47,3.97,1.6
			c2.05,1.6,2.62,1.9,3.61,1.9c1.62,0,3.17-1.48,3.17-3.03c0-1.05-0.58-2.21-2-4.02c-2.02-2.58-2.73-4.26-2.73-6.44
			c0-1.47,0.29-2.27,1.6-4.39c0.2-0.34,0.32-0.62,0.32-0.81c0-0.41-0.69-0.79-1.45-0.79c-0.81,0-1.82,0.3-3.18,0.92
			c-2.28,1.05-3.64,2.02-3.64,2.62c0,0.24,0.14,0.47,0.38,0.64l0.76,0.53c0.09,0.07,0.16,0.18,0.16,0.32c0,0.13-0.14,0.39-0.32,0.59
			c-0.15,0.17-0.66,0.83-1.52,1.97c-1.06,1.41-2.07,2.47-3.17,3.33c-0.41,0.31-0.66,0.57-0.77,0.76l-0.6,1.14
			c-0.51,0.95-2,2.51-3.26,3.41c-0.57,0.4-0.92,0.69-1.06,0.83c-0.16,0.17-0.38,0.53-0.68,1.06c-0.77,1.39-1.99,3.1-2.8,3.94
			l-2.05,2.12c-0.59,0.6-1.41,2.36-2.2,4.69c-0.62,1.84-1.02,2.66-1.3,2.66c-0.13,0-0.34-0.17-0.59-0.46
			c-1.47-1.68-2.79-2.73-3.44-2.73c-0.17,0-0.46,0.14-0.88,0.38c-0.58,0.35-1.27,0.61-2.04,0.76l-2.73,0.52
			c-2.28,0.45-3.19,0.93-4.24,2.28c-0.26,0.33-0.49,0.53-0.6,0.53c-0.27,0-0.47-0.39-0.47-0.92l0.08-0.66
			c0.02-0.07,0.15-0.75,0.39-2.04c0.39-2.16,0.94-3.94,1.51-4.93l1.37-2.35c0.24-0.42,0.38-0.85,0.38-1.22
			c0-1.75-1.63-3.17-4.1-3.56c-0.5-0.07-0.76-0.26-0.76-0.55c0-0.35,0.59-1.02,1.52-1.72c1.61-1.21,3.38-1.97,4.63-1.97
			c0.84,0,1.97,0.3,3.48,0.91l1.67,0.68c0.62,0.26,1.19,0.39,1.69,0.39c1.77,0,3.47-1.61,5.59-5.23c0.95-1.65,1.37-2.82,1.37-3.9
			c0-1.92-0.89-3.07-2.39-3.07c-1.17,0-2.3,0.5-3.22,1.43c-0.83,0.84-1.26,1.67-1.26,2.42l0.04,0.77l0.03,0.4
			c0,0.61-0.21,0.89-0.66,0.89c-0.57,0-1.24-0.56-2.55-2.13c-0.54-0.65-1.25-1.48-2.12-2.5c-2.3-2.69-2.78-3.78-2.88-6.52
			c-2.57-3.28-3.21-5.1-3.21-7l0.1-1.56c-1.84-2.21-2.2-3.07-2.2-5.25c0-0.98,0.06-1.24,0.46-2.02c-0.91-1.33-1.2-1.93-1.44-2.96
			l-0.38-1.6c-0.26-1.08-0.66-2.01-1.21-2.8c-0.68-0.98-0.76-1.12-0.76-1.41c0-0.79,0.76-1.3,2.66-1.77l0.61-0.15
			c-0.1-0.74-0.15-1.3-0.15-1.68c0-0.44,0.06-0.87,0.23-1.81l0.53-2.81c0.2-1.09,0.31-1.93,0.31-2.49c0-0.65-0.1-1.17-0.46-2.36
			c-0.23-0.77-0.49-1.36-0.76-1.75c-0.29-0.42-0.46-0.77-0.46-1c0-0.26,0.26-0.46,0.6-0.46c0.19,0,0.5,0.1,0.76,0.24
			c2.56,1.39,5.36,3.61,7.35,5.84c1.71,1.9,2.27,3.49,2.66,7.73c2.33,1.72,3.19,3.29,3.19,5.75c0,1.46-0.48,2.87-1.52,4.48
			c-0.93,1.42-1.43,2.2-1.51,2.35c-0.45,0.76-0.69,1.64-0.69,2.57c0,1.37,0.41,2.66,1.44,4.48c1.13,2.01,2.15,2.88,3.35,2.88
			c1.99,0,3.79-3.43,3.79-7.21l-0.01-0.75v-2.05l0.23-1.82l0.15-2.2l0.15-1.82l0.06-1.01c0-0.75-0.15-0.96-2.49-3.45
			c-2.57-2.76-3.79-5.08-3.79-7.24c0-2.04,1.75-3.74,3.85-3.74c0.44,0,0.83,0.07,1.6,0.3v-0.91l0.08-1.6l0.45-1.96
			c0.36-1.57,0.53-1.86,1.07-1.86l0.37,0.12l1.37,1.21l1.66,1.06l0.46,0.45c0.11-0.95,0.19-1.13,0.98-2.13
			c0.39-0.49,0.75-0.97,1.06-1.44l0.76-1.13l0.46-0.68c0.3-0.46,0.44-0.57,0.63-0.57c0.21,0,0.35,0.26,0.58,1.11
			c0.1,0.34,0.33,0.68,0.68,0.98l0.99,0.83c0.8,0.68,1.33,1.68,1.66,3.11c0.6-0.75,0.89-1.02,1.51-1.37l1.22-0.68
			c0.45-0.26,0.72-0.39,0.8-0.39c0.08,0,0.21,0.18,0.34,0.46c0.18,0.4,0.38,0.78,0.61,1.14c0.98,1.57,1.06,1.8,1.06,2.86l0,0.63
			v0.91c2.46,0.68,3.42,2,3.42,4.72c0,2.04-0.93,4.14-2.89,6.49c-1.3,1.56-1.52,2.04-1.52,3.21c0,5.35,4.03,8.58,10.84,8.68l5,0.08
			c3.27,0.05,5.26,0.38,8.26,1.36c3.51,1.15,4.65,1.45,5.72,1.45c0.77,0,1.41-0.43,1.41-0.95c0-1.1-1.83-1.94-7.96-3.68
			c-12.48-3.53-17.81-8.58-17.81-16.85c0-6.41,5.34-11.35,12.26-11.35c2.18,0,5.58,0.58,7.52,1.29l3.1,1.14
			c0.57,0.21,1.12,0.32,1.63,0.32c1.07,0,1.48-0.67,1.63-2.67c0.07-0.89,0.35-1.29,0.92-1.29c0.8,0,2.35,1.25,3.47,2.8
			c1.16,1.6,1.98,3.71,1.98,5.08c0,1.62-0.84,2.84-2.66,3.86c-1.7,2.59-3.79,3.79-6.6,3.79c-2.16,0-5.82-1.46-10.44-4.16
			c-1.82-1.06-2.62-1.36-3.63-1.36c-1.36,0-2.24,0.76-2.24,1.97c0,1.1,0.81,1.78,3.06,2.57c3.59,1.28,4.36,1.7,5.38,2.96
			c3.86,0.67,5.54,1.34,7.96,3.18c6.92,2.22,10.77,6.49,10.77,11.96c0,4.98-3.37,8.58-8.07,8.58
			C1522.85,143.28,1522.2,143.2,1520.42,142.82"/>
		<path class="st8" d="M1527.93,176.02c-0.18-0.69-0.24-1.02-0.24-1.39l0.09-1.03c0.19-1.42,0.24-2.1,0.24-2.95
			c0-0.56-0.16-1-0.55-1.52l-0.91-1.21c-0.59-0.79-0.83-1.39-0.83-2.07c0-0.44,0.1-0.58,0.4-0.58l0.35,0.07
			c0.04,0.02,0.27,0.15,0.68,0.38c0.31,0.17,0.57,0.26,0.76,0.26c0.46,0,0.69-0.71,0.69-2.13c0-1.97-0.37-2.92-1.51-3.81l-1.06-0.83
			c-0.19-0.15-0.31-0.39-0.31-0.62c0-0.36,0.21-0.6,0.56-0.6c0.21,0,0.51,0.06,0.88,0.16l0.84,0.23l0.32,0.07
			c0.26,0,0.38-0.2,0.38-0.64l-0.02-0.26l-0.23-1.6c-0.24-1.65-0.51-2.28-1-2.28l-0.13,0.02l-1.97,0.37l-0.33,0.03
			c-2.37,0-5.16-2.24-5.88-4.73l-1.44-4.93c-0.43-1.47-1.71-3.1-3.64-4.63c-0.63-0.49-1.18-0.78-1.59-0.82l-1.36-0.16
			c-0.25-0.03-0.41-0.18-0.41-0.37c0-0.31,0.26-0.46,0.82-0.46c1.92,0,3.98,0.39,6.72,1.29c2.49,0.82,3.85,1.12,5.06,1.12
			c3.8,0,6.08-1.98,6.08-5.26c0-1.64-0.6-3.71-1.44-5.03c-0.74-1.14-1.98-2.3-3.57-3.33c-0.23-0.15-0.44-0.24-0.6-0.24
			c-0.21,0-0.39,0.17-0.39,0.39l0.08,0.98l0,0.09c0,0.37-0.21,0.67-0.48,0.67c-0.42,0-0.86-0.49-1.34-1.52
			c-1.4-2.96-3.65-4.75-5.96-4.75c-0.51,0-0.8,0.18-0.8,0.49c0,0.23,0.14,0.58,0.39,1c0.24,0.38,0.47,0.84,0.68,1.36
			c0.12,0.3,0.18,0.52,0.18,0.65c0,0.14-0.12,0.22-0.35,0.22c-0.34,0-0.9-0.31-1.28-0.71c-0.76-0.8-1.14-1.21-1.14-1.21l-0.98-1.52
			c-0.77-1.17-1.61-1.91-3.03-2.65l-1.9-0.99c-0.38-0.2-0.71-0.31-0.97-0.31c-0.24,0-0.35,0.12-0.35,0.35
			c0,0.24,0.12,0.54,0.34,0.87c0.4,0.59,0.7,1.23,0.7,1.51c0,0.26-0.17,0.46-0.38,0.46c-0.53,0-1.48-0.95-2.82-2.8
			c-0.96-1.33-1.45-2.77-1.45-4.26c0-3.19,2.46-5.68,5.63-5.68c1.62,0,3.66,0.68,5.67,1.9l3.64,2.2c1.3,0.79,3.06,1.37,4.16,1.37
			c0.6,0,0.78-0.03,2.13-0.38c0.4-0.1,0.73-0.22,0.98-0.38c0.16-0.1,0.28-0.28,0.28-0.45c0-0.3-0.18-0.43-0.66-0.46
			c-1.69-0.13-5.19-1.51-7.5-2.96c-1.35-0.84-2.18-1.33-2.5-1.43c-0.63-0.22-1.04-0.55-1.04-0.81c0-0.12,0.13-0.18,0.33-0.18
			l0.44,0.08l3.3,1.21l3.18,1.14c1.56,0.55,3.99,1.06,5.09,1.06c1.44,0,2.43-0.99,2.43-2.43c0-0.72-0.18-1.54-0.48-2.11
			c-0.46-0.91-1.07-1.67-1.31-1.67c-0.3,0-0.46,0.3-0.46,0.81l0.03,0.4l0.1,0.97c0,1.02-0.56,1.69-1.43,1.69
			c-0.34,0-0.76-0.08-1.24-0.24l-4.93-1.59c-4.28-1.38-5.95-1.75-8.05-1.75c-5.95,0-10.45,4.02-10.45,9.38
			c0,6.04,4.14,9.83,14.78,13.51c10.32,3.58,11.66,4.4,11.66,7.12c0,1.56-1.46,2.81-3.3,2.81c-0.68,0-1.27-0.06-1.78-0.15
			c-0.45-0.09-2.16-0.49-5.16-1.21c-3.16-0.77-5.85-1.07-9.42-1.07c-7.52,0-11.14,1.15-15.06,4.78c-0.91,0.85-1.27,1-2.29,1
			l-0.51-0.02l-1.19-0.08c-0.91,0-1.59,0.43-2.14,1.37l-1.21,2.05c-0.17,0.28-0.5,0.45-0.87,0.45c-0.79,0-1.2-0.52-1.94-2.35
			c-0.38-0.97-0.91-1.75-1.51-2.28l-1.59-1.36c-0.24-0.21-0.38-0.4-0.38-0.55c0-0.15,0.14-0.41,0.38-0.73
			c0.24-0.31,0.47-0.66,0.68-1.06c0.23-0.43,0.36-0.74,0.38-0.92l0.07-0.68c0.06-0.22,0.28-0.38,0.54-0.38c0.5,0,0.59,0.33,0.6,2.2
			c0,0.48,0.2,1.18,0.6,2.04l0.83,1.82c0.11,0.24,0.38,0.38,0.69,0.38c0.79,0,1.78-1.85,2.04-3.79c0.22-1.61,0.39-2.13,0.72-2.13
			c0.31,0,0.45,0.2,1.1,1.52c0.2,0.41,0.51,0.8,0.91,1.14c0.37,0.31,0.69,0.5,0.91,0.53l0.08,0c0.63,0,0.83-0.39,0.98-1.83
			l0.07-0.75l-0.15-1.07l-0.1-0.73c0-0.49,0.17-0.78,0.45-0.78c0.16,0,0.37,0.11,0.57,0.3l0.76,0.76c0.5,0.51,1.02,0.76,1.53,0.76
			c0.65,0,1.05-0.28,1.05-0.75c0-0.38-0.09-0.56-0.76-1.68c-0.07-0.11-0.24-0.44-0.53-0.98c-0.67-1.28-0.99-1.6-1.58-1.6l-0.77,0.07
			l-0.99,0.38c-0.29,0.11-0.5,0.18-0.6,0.18c-0.13,0-0.23-0.13-0.23-0.31c0-0.68,0.45-1.76,1.29-3.08c0.52-0.82,0.96-2.86,1.28-5.95
			l0.39-3.56c0.23-2.19,0.47-2.96,0.91-2.96c0.16,0,0.29,0.07,0.3,0.16l0.22,1.13v0.91c0,1.11,0.12,2,0.26,2
			c0.32,0,0.79-0.38,1.26-1.02c0.33-0.46,0.58-0.97,0.76-1.51c0.25-0.81,0.38-1.48,0.38-1.99c0-1.75-0.74-2.51-3.11-3.17
			c-0.24-0.07-0.4-0.15-0.45-0.23l-0.08-0.68v-1.28l-0.15-0.92l-0.29-0.76l-0.39-0.83l-0.6,0.38c-1.55,0.97-1.92,1.26-2.43,1.9
			c-0.69,0.87-0.93,1.09-1.21,1.09c-0.21,0-0.37-0.14-0.37-0.33l0.3-1.29l0.03-0.22c0-1.66-0.93-3.27-2.6-4.47l-0.53,0.61
			l-0.53,0.76l-0.91,1.06c-0.53,0.62-0.84,1.46-0.84,2.25l0.01,0.25l0.01,0.25c0,0.6-0.09,0.8-0.37,0.8l-0.17-0.07l-0.61-0.75
			l-0.76-0.91l-1.37-0.83l-0.68-0.53c-0.73,1.59-0.76,1.76-0.76,3.8l0,0.63c0,0.68-0.23,1.1-0.59,1.1c-0.18,0-0.5-0.13-0.92-0.38
			c-0.34-0.2-0.75-0.31-1.13-0.31c-1.1,0-1.91,0.94-1.91,2.22c0,1.39,0.3,2.34,1.22,3.85c0.59,0.98,1.38,1.78,1.74,1.78
			c0.04,0,0.14-0.7,0.23-1.63l-0.23-1.29l-0.05-0.58c0-0.49,0.17-0.79,0.46-0.79c0.43,0,0.69,0.47,0.96,1.75l0.61,2.81l0.6,3.56
			c0.17,0.96,0.47,1.97,0.91,3.03c0.6,1.43,1.03,2.32,1.28,2.65c0.84,1.08,0.94,1.23,0.94,1.47c0,0.19-0.15,0.35-0.33,0.35
			c-0.16,0-0.39-0.08-0.69-0.23c-0.26-0.14-0.56-0.24-0.91-0.3l-0.55-0.08c-1.26,0-1.51,1.01-1.51,6.04c0,3.14,0.65,7.32,1.46,9.35
			l1.59,4.02c0.25,0.63,0.39,1.27,0.39,1.88c0,5.54-7.5,14.4-15.39,18.2c-3.07,1.47-3.98,3.01-4.24,7.2
			c1.31-0.63,1.84-0.83,2.65-1.06c2.23-0.63,2.71-0.94,3.03-1.97l0.3-0.99c0.14-0.42,0.42-0.63,1.97-1.44c0.58-0.3,1-0.64,1.21-0.98
			c0.4-0.65,0.7-0.98,0.9-0.98c0.22,0,0.33,0.15,0.33,0.39l-0.02,0.12l-0.84,2.17l-0.09,0.53c0,1.59,0.89,2.91,2.52,3.75
			c0.1-0.4,0.18-0.7,0.22-0.91c0.27-1.16,0.53-1.92,0.76-2.27l1.45-2.12c0.52-0.77,0.61-1.27,0.61-3.23l-0.09-2.38l-0.05-0.61
			c0-0.39,0.19-0.61,0.53-0.61c0.26,0,0.48,0.1,0.5,0.23l0.22,1.44c0.05,0.31,0.37,0.53,0.74,0.53c0.73,0,1.67-0.94,2.67-2.65
			c0.38-0.67,0.54-1.19,0.54-1.81c0-0.48-0.1-1.54-0.24-2.36l-0.03-0.45c0-0.38,0.22-0.61,0.58-0.61c0.19,0,0.34,0.06,0.37,0.14
			l0.53,1.75c0.18,0.58,0.58,0.99,0.99,0.99c1.16,0,2.37-2.38,2.49-4.93c0.07-1.6,0.27-2.16,0.76-2.16c0.19,0,0.33,0.07,0.38,0.18
			l0.3,0.99c0.11,0.36,0.33,0.6,0.54,0.6c0.19,0,0.58-0.34,1.05-0.91c0.26-0.33,0.5-0.65,0.68-0.99c0.15-0.27,0.22-0.54,0.22-0.8
			c0-0.38-0.08-0.49-0.68-0.95c-0.55-0.42-0.83-0.95-0.83-1.59c0-1.1,0.47-2.28,1.82-4.63c1.24-2.13,1.4-2.37,1.71-2.37
			c0.28,0,0.5,0.28,0.5,0.65c0,0.22-0.06,0.45-0.16,0.67c-0.2,0.44-0.31,0.74-0.31,0.91c0,0.3,0.27,0.54,0.6,0.54
			c0.37,0,0.84-0.16,1.38-0.45c0.32-0.18,1.01-0.46,2.05-0.84c1.41-0.51,2.27-0.82,2.57-0.91c0.47-0.15,1.02-0.23,1.56-0.23
			c0.44,0,0.88,0.05,1.32,0.15c0.86,0.2,1.45,0.31,1.75,0.31c0.69,0,1.22-0.53,1.22-1.2c0-0.3-0.21-0.88-0.47-1.31
			c-0.39-0.63-0.62-0.99-0.68-1.06c-0.33-0.35-0.47-0.54-0.47-0.68l0.08-0.31c0.09-0.19,0.26-0.3,0.43-0.3
			c0.6,0,1.77,1.22,2.83,2.96c5.94,9.7,8.82,12.77,13.19,14.09c4.55,1.38,5.62,2.34,5.62,5.06c0,1.44-0.76,3.18-2.36,5.4
			c-3.03,4.21-4.1,6.67-4.1,9.46l0.01,0.62c0.37-0.16,0.65-0.29,0.83-0.38c0.62-0.31,1.03-0.5,1.22-0.53l1.89-0.38
			c0.6-0.12,1.07-0.83,1.07-1.59l-0.01-0.15l-0.15-1.67l-0.02-0.26c0-0.94,0.46-1.71,1.03-1.71c0.21,0,0.45,0.19,0.58,0.46
			l1.21,2.57C1525.77,174.8,1526.35,175.29,1527.93,176.02"/>
		<path class="st8" d="M1465.78,124.03l-0.08,1.21l-0.02,0.74c0,1.23,0.19,1.76,0.65,1.76c0.5,0,1.29-0.94,1.64-1.97
			c0.22-0.64,0.39-1.54,0.39-2.05c0-0.37-0.09-0.7-0.39-1.44c-0.34-0.83-0.69-1.21-1.11-1.21
			C1466.22,121.07,1465.92,121.9,1465.78,124.03"/>
		<path class="st8" d="M1460.55,110.01l1.06,1.06c1.55,1.55,2.61,4.71,2.61,7.76l-0.04,1.26l-0.23,3.56l-0.08,2.98
			c0,9.9,2.88,16.66,7.12,16.66c1.06,0,2.37-0.98,3.27-2.43c0.2-0.31,0.45-0.55,0.61-0.55c0.24,0,0.36,0.2,0.38,0.63l0.15,1.67
			l0.15,1.44c0.08,0.68,0.15,1.21,0.23,1.6c0.15,0.73,0.23,1.23,0.23,1.49c0,0.76-0.15,0.85-1.97,1.09
			c-0.68,0.09-1.4,0.37-2.12,0.83c-1.18,0.75-1.86,1.28-1.97,1.51l-0.83,1.75c-0.11,0.22-0.3,0.38-0.48,0.38
			c-0.44,0-1.03-0.67-1.87-2.12c-0.77-1.34-1.11-2.11-1.11-2.47c0-0.24,0.19-0.34,0.66-0.34l0.16,0l0.91,0.08l0.68-0.08l0.61-0.07
			c0.26-0.06,0.45-0.29,0.45-0.56c0-0.18-0.12-0.35-0.31-0.42l-3.41-1.45c-0.82-0.35-1.69-1.23-2.5-2.49
			c-0.87-1.4-1.38-2.61-1.38-3.3c0-0.54,0.23-0.89,0.59-0.89c0.14,0,0.34,0.05,0.56,0.17c0.38,0.18,0.73,0.3,0.89,0.3
			c0.13,0,0.27-0.06,0.41-0.15c0.15-0.12,0.23-0.25,0.23-0.36c0-0.22-0.23-0.5-0.6-0.78c-2.84-2.01-4.55-4.45-4.55-6.46
			c0-0.59,0.14-0.86,0.43-0.86l0.56,0.05c0.41,0.09,0.9,0.15,1.06,0.15c0.41,0,0.69-0.23,0.69-0.59c0-0.22-0.28-0.5-0.7-0.7
			c-1.89-0.94-2.36-1.49-3.56-4.17c-0.92-2.06-1.4-2.92-2.2-3.94c0.99-0.48,1.53-0.62,2.36-0.62c1.04,0,1.69,0.68,2.42,2.51
			c0.46,1.16,0.96,1.94,1.25,1.94c0.14,0,0.2-0.24,0.2-0.88c0-0.75-0.11-1.52-0.31-2.27c-0.18-0.69-0.27-1.26-0.22-1.67l-0.15-1.06
			l-0.84-0.45c-0.77-0.42-1.29-1.42-1.29-2.48c0-0.47,0.05-0.94,0.15-1.37c0.02-0.09,0.17-0.67,0.46-1.75
			c0.33-1.23,0.54-2.51,0.54-3.21l-0.01-0.65L1460.55,110.01z"/>
		<path class="st8" d="M1469.64,164.65c-1.59-0.27-1.84-0.35-3.63-1.13c-1.24-0.55-2.05-0.77-2.85-0.77c-1.2,0-2.12,0.38-3.22,1.3
			l0.68,0.53l1.52,1.06l1.45,1.14c0.37,0.3,0.82,0.46,1.27,0.46C1466.35,167.23,1467.6,166.55,1469.64,164.65"/>
		<path class="st8" d="M1498.82,178.45c0.42-0.94,0.62-1.2,1.52-1.97c2.12-1.82,3.11-3.17,3.11-4.24v-0.76v-0.91
			c0-0.97,0.16-1.29,0.67-1.29c0.23,0,0.41,0.09,0.47,0.23l0.38,0.9c0.09,0.21,0.33,0.34,0.64,0.34c0.54,0,0.92-0.39,1.86-1.93
			c0.4-0.65,0.55-1.07,0.55-1.5c0-0.27-0.06-0.56-0.18-0.85c-0.06-0.14-0.23-0.54-0.53-1.21c-0.17-0.39-0.31-0.91-0.31-1.19
			c0-0.5,0.25-0.79,0.68-0.79c0.23,0,0.43,0.09,0.55,0.24l0.6,0.75c0.14,0.16,0.17,0.27,0.4,0.27c0.28,0,0.78-0.27,0.97-0.64
			l0.61-1.21c0.15-0.3,0.23-0.54,0.23-0.69c0-0.26-0.24-0.51-0.61-0.67l-1.06-0.46c-1.24-0.53-2.27-2.67-2.27-4.7
			c0-0.23,0.08-0.56,0.23-0.98l0.46-1.29c0.15-0.42,0.23-0.85,0.23-1.26c0-0.75-0.23-1.46-0.76-2.3c-0.52-0.85-0.83-1.38-0.91-1.59
			c-0.44-1.13-0.7-1.5-1.07-1.5c-0.27,0-0.52,0.1-0.97,0.36l-0.76,0.46l-1.06,1.22l-1.06,0.52c-0.63,0.32-1.24,1.69-1.24,2.84
			c0,1.64,0.36,2.53,2.83,6.95c1.05,1.87,1.54,3.26,1.54,4.31c0,3.08-3.15,5.62-8.29,6.67c-6.14,1.26-7.48,2.27-8.18,6.22
			c1.06-0.55,1.48-0.63,3.36-0.63l1.11,0.01l0.18,0c1.01,0,1.15-0.07,1.8-0.99c0.74-1.05,1.48-1.67,2.5-2.11l1.21-0.54l0.98-0.53
			l0.3-0.08c0.27,0,0.42,0.11,0.42,0.32c0,0.26-0.25,0.7-0.72,1.28c-0.73,0.89-1.16,1.8-1.16,2.5
			C1498.04,177.03,1498.21,177.54,1498.82,178.45"/>
		<path class="st8" d="M1489.27,166.7c0.87,0.54,1.76,1.33,2.27,2.05c0.72,0.99,0.83,1.06,1.55,1.06c0.3,0,0.68-0.05,1.1-0.16
			l0.68-0.15c1.29-0.24,1.68-0.43,1.68-0.78c0-0.21-0.12-0.42-0.32-0.59l-0.91-0.76l-0.83-0.76c-0.52-0.46-1.57-0.84-2.39-0.84
			C1491.17,165.78,1490.4,166.03,1489.27,166.7"/>
		<path class="st8" d="M1513.83,170.79l0.45-0.08l0.76-0.07l0.61,0.07l0.41,0.03c0.77,0,1.16-0.08,1.48-0.33
			c0.47-0.35,0.95-0.93,1.44-1.74c0.2-0.33,0.3-0.62,0.3-0.86c0-0.51-0.47-0.81-1.3-0.81C1515.91,167,1514.63,168.16,1513.83,170.79
			"/>
		<path class="st6" d="M1485.56,118.43c0.09,0.7,0.45,1.28,0.83,1.28c0.32,0,0.82-1.09,1.61-2.42c1.07-1.83,1.96-3.35,1.96-4.32
			c0-0.32-0.17-0.57-0.38-0.57l-0.08,0.02l-0.83,0.77c-0.49,0.44-1.53,1.01-2.5,1.36c-0.97,0.35-1.25,0.64-1.25,1.29l0.11,0.61
			l0.63,1.31L1485.56,118.43z"/>
		<path class="st6" d="M1478.9,112.82c-0.27-0.22-0.64-0.39-0.85-0.39c-0.32,0-0.46,0.17-0.46,0.55l0.02,0.22
			c0.06,0.42,0.16,0.85,0.3,1.28c0.38,1.2,0.82,1.93,1,2.12l1.14,1.92c0.53,0.61,1.33,0.95,1.65,1.04l0.05,0.01
			c0.21,0,0.37-0.13,0.4-0.31l0.24-1.52l0.38-1.37l0.05-0.32c0-0.37-0.21-0.69-0.57-0.89l-1.29-0.69L1478.9,112.82z"/>
		<path class="st6" d="M1483.89,122.44l-0.4,0l-0.88-0.08c-0.03-0.01-0.34-0.2-0.91-0.54c-0.34-0.2-0.71-0.3-1.06-0.3
			c-0.69,0-1.11,0.43-1.11,1.16c0,0.57,0.34,1.67,0.97,3.16c0.27,0.64,0.6,1.45,0.99,2.42c0.83,2.12,1.7,3.03,2.84,3.03
			c0.98,0,1.77-0.81,2.39-2.42l0.84-3.42c0.4-1.06,1.4-1.51,1.4-2.25c0-0.87-0.97-1.7-1.8-1.7l-0.44,0.09l-1.13,0.77L1483.89,122.44
			z"/>
		<path class="st8" d="M1483.82,124.56h-0.91c-0.14,0-0.28,0.08-0.38,0.23c-0.15,0.21-0.23,0.35-0.23,0.38l0.38,1.82l0.3,1.59
			c0.17,0.88,0.32,1.22,0.97,1.22c0.74,0,1.38-0.51,1.46-1.44l0.15-1.67c0.1-1.11,0.15-1.69,0.15-1.73c0-0.16-0.08-0.33-0.22-0.46
			c-0.11-0.1-0.25-0.16-0.39-0.16l-0.07,0.01L1483.82,124.56z"/>
	</g>
	<g>
		<path class="st6" d="M1380.45,285.9c0.66,1.67,0.89,2.49,0.98,3.57l0.15,3.18c0.12,3.19,1.18,4.77,3.18,4.77
			c0.73,0,1.33-0.19,1.67-0.53l0.83-0.83l0.33-0.1c0.53,0,0.82,0.35,0.82,0.99l-0.09,1.23c-0.06,0.55,0.04,1.73,0.3,3.48
			c0.15,1.03,0.23,2.05,0.23,3.06c0,1.62-0.12,2.24-0.69,3.69c0.53,1.49,0.83,3.17,0.83,4.58c0,1.65-0.27,2.76-0.91,3.69
			c0.3,1.3,0.38,1.83,0.38,2.57c0,0.75-0.1,1.71-0.3,2.88c-0.27,1.58-0.37,2.8-0.31,3.63l0.01,0.2c0,0.48-0.14,0.71-0.44,0.71
			c-0.28,0-0.63-0.22-0.93-0.6c-0.46-0.59-0.76-0.81-1.11-0.81c-0.52,0-0.69,0.28-1.47,2.55c-0.24,0.7-0.85,1.65-1.82,2.81
			c-0.75,0.9-1.22,1.65-1.36,2.2c-0.24,0.91-0.39,1.43-0.45,1.59c-0.09,0.2-0.26,0.35-0.46,0.37l-0.1,0.01
			c-1.25,0-2.68-2.68-4.15-7.73c-0.41-1.43-0.94-2.07-1.71-2.07c-0.55,0-1.11,0.36-1.32,0.85l-0.45,1.06
			c-0.08,0.18-0.24,0.3-0.4,0.3c-0.61,0-1.53-1.11-2.1-2.51c-0.47-1.16-0.74-2.41-0.74-3.49c0-2.37,1.75-4.14,7.03-7.13
			c2.3-1.29,3.19-2.94,3.19-5.9c0-2.35-0.71-3.7-2.73-5.23c-1.6-1.21-2.53-1.67-3.38-1.67c-0.72,0-1.29,0.48-1.29,1.09
			c0,0.71,0.41,1.15,1.4,1.49c1.16,0.42,1.67,0.83,1.67,1.35c0,0.48-0.49,1.51-1.29,2.74c-0.86,1.31-1.23,1.69-2.43,2.51
			c-0.36,2.09-1.34,3.42-3.64,4.93c-0.46,1.31-0.72,1.77-1.52,2.8l-1.59,2.05c-0.5,0.63-1.05,1.79-1.13,2.35
			c-0.17,1.15-0.28,1.36-0.72,1.36c-0.6,0-1.84-1.07-3.07-2.65c-0.73-0.94-0.91-1.38-0.98-2.51c-0.79,0.62-1.04,0.7-2.58,0.91
			c-0.92,0.13-1.62,0.3-2.04,0.54c-1.17,0.61-1.54,0.78-1.75,0.78c-0.31,0-0.42-0.17-0.44-0.7l-0.08-1.67c0-2.29,0.9-4.96,2.28-6.74
			c-1.33-1.15-2.65-1.85-3.71-1.97c-0.45-0.05-0.57-0.11-0.57-0.27c0-0.28,0.3-0.87,0.72-1.4c0.57-0.71,1.02-1.22,1.36-1.51
			c1.08-0.92,2.94-1.59,4.4-1.59c0.99,0,2.44,0.36,4.32,1.06c0.67,0.26,1.29,0.38,1.81,0.38c0.83,0,1.31-0.54,1.31-1.49
			c0-1.38-0.68-3.53-2.21-7c-1.03-2.34-1.5-3.92-1.5-5c0-2.63,1.24-5.35,2.79-6.14c-0.73-0.37-1.06-0.46-1.69-0.46
			c-0.76,0-1.36,0.19-2.33,0.76c-1.12,0.65-1.75,1.23-1.75,1.62c0,0.15,0.23,0.38,0.61,0.66c0.59,0.41,0.69,0.56,0.69,1.12
			c0,1.87-1.55,4.37-3.72,6c-0.48,2.65-1.7,4.26-4.1,5.38c-0.31,1.44-0.51,1.86-1.67,3.49c-1.98,2.78-2.44,3.66-2.8,5.23
			c-0.19,0.81-0.37,1.15-0.63,1.15c-0.32,0-0.99-0.51-1.72-1.3c-0.64-0.7-1.04-1.17-1.21-1.45c-0.32-0.5-0.49-0.98-0.83-2.42
			c-0.55,0.15-0.7,0.18-1.09,0.18l-1.11-0.03l-0.76-0.02c-1.66,0-3.42,0.38-4.32,0.93c-0.33,0.2-0.55,0.3-0.66,0.3
			c-0.49,0-0.89-1.03-0.89-2.3c0-2.73,0.76-5,2.53-7.47c-0.65-0.54-0.86-0.75-1.44-1.36c-0.25-0.28-0.45-0.46-0.61-0.54l-0.83-0.45
			c-0.29-0.15-0.46-0.34-0.46-0.49c0-0.4,1.11-1.46,2.43-2.31c1.46-0.94,2.61-1.37,3.67-1.37c1.24,0,1.9,0.32,3.45,1.67
			c1.08,0.94,1.81,1.37,2.33,1.37c0.37,0,0.77-0.25,1.08-0.69c0.25-0.35,0.39-0.74,0.39-1.13c0-1.45-1.73-3.9-3.65-5.16
			c-1.43-0.94-2.99-1.44-4.52-1.44c-2.11,0-3.92,1.05-4.73,2.73l-0.84,1.74c-0.2,0.41-0.44,0.62-0.72,0.62
			c-0.49,0-0.74-0.22-2.46-2.21l-1.97-2.28c-0.61-0.7-1.02-1.37-1.22-1.96c-0.18-0.56-0.3-0.9-0.38-0.99
			c-0.07-0.1-0.33-0.3-0.75-0.61c-1.52-1.08-2.63-3.21-3.26-6.29c-0.05-0.22-0.12-0.55-0.23-0.98c-1.86-2.28-2.96-5.09-2.96-7.54
			c0-0.33,0.02-0.47,0.17-1.03c-1.08-1.09-1.2-1.35-2.05-4.25c-0.61-2.06-0.99-2.94-1.74-3.93c-0.2-0.27-0.3-0.47-0.3-0.59
			c0-0.41,0.63-0.75,1.74-0.93c1.04-0.17,1.1-0.18,1.52-0.18l1.51,0.1l-0.1-2.08c0-1.22,0.1-2.01,0.4-3.46
			c0.15-0.72,0.23-1.25,0.23-1.58c0-0.13-0.05-0.57-0.15-1.3c-0.08-0.56-0.15-0.94-0.22-1.13c-0.11-0.28-0.16-0.5-0.16-0.64
			c0-0.25,0.16-0.38,0.45-0.38c0.22,0,0.53,0.11,1,0.33c1.32,0.65,2.41,1.31,3.25,1.97c2.61,2.05,4.67,5.2,4.67,7.15l-0.04,0.59
			c-0.11,0.67-0.16,1.05-0.16,1.11c0,0.33,0.19,0.77,0.53,1.23l0.83,1.14c0.74,1.01,1.22,2.18,1.22,2.97c0,0.71-0.15,1.02-1.37,2.79
			c-0.92,1.32-1.3,2.31-1.3,3.39c0,1.37,0.55,3.09,1.52,4.8c0.89,1.57,1.92,2.43,2.91,2.43c1.69,0,2.43-1.5,2.69-5.55
			c0.14-2.11,0.34-4,0.61-5.75l0.08-1.04c0-0.47-0.15-0.75-0.76-1.48l-2.28-2.64c-2.17-2.53-2.82-3.83-2.82-5.65
			c0-2.08,1.37-3.53,3.35-3.53l0.91,0.08l-0.01-0.59c0-0.48,0.13-1.17,0.39-2.06c0.47-1.63,1.08-2.88,1.39-2.88
			c0.1,0,0.35,0.12,0.73,0.38c0.12,0.07,0.58,0.25,1.37,0.53c0.42,0.15,0.72,0.3,1.51,0.75c0.37-1.3,0.64-1.9,1.22-2.65
			c0.98-1.26,2.09-2.27,2.48-2.27c0.24,0,0.68,0.32,1.23,0.91l1.44,1.52c0.24,0.24,0.52,0.74,0.83,1.44l0.3,0.68
			c0.4-0.23,0.7-0.41,0.91-0.52c0.59-0.36,1-0.58,1.21-0.68c0.92-0.44,1.4-0.66,1.44-0.68c0.39-0.25,0.66-0.39,0.78-0.39
			c0.25,0,0.4,0.45,0.96,2.97c0.39,1.72,0.44,2.08,0.53,3.34c2.42,0.34,3.56,1.73,3.56,4.32c0,2.45-1.2,4.87-3.79,7.64
			c-0.71,0.76-0.88,1.12-0.88,1.83c0,6.7,2.33,8.82,10.73,9.7c5.15,0.54,6.68,0.87,12.88,2.73c3.26,0.97,5.13,1.38,6.34,1.38
			c1.43,0,2.23-0.52,2.23-1.44c0-1.41-1.02-1.85-7.05-3.12c-14.04-2.96-19.56-7.75-19.56-17.02c0-6.6,4.94-11.56,11.53-11.56
			c2.91,0,5.5,0.89,9.62,3.26c3.81,2.21,4.6,2.59,5.47,2.59c1.02,0,1.42-0.65,1.42-2.3c0-1.06,0.32-1.58,0.98-1.58
			c0.6,0,1.53,0.63,2.35,1.59c1.26,1.49,1.74,2.25,1.74,4.3c0,2.74-1.46,4.54-4.32,5.33c-0.31,0.33-0.53,0.58-0.68,0.75
			c-1.56,1.76-2.93,2.35-5.41,2.35c-2.16,0-4.86-0.88-6.72-2.2l-3.64-2.57c-1.57-1.12-2.72-1.59-3.82-1.59
			c-1.55,0-2.48,0.93-2.48,2.48c0,1.52,1.01,2.76,2.66,3.27l3.42,1.06c1.21,0.38,1.78,0.61,3.25,1.36c0.84-0.12,1.23-0.16,1.7-0.16
			c2.12,0,4.4,0.57,6.41,1.6c0.64,0.33,1.1,0.54,1.36,0.61l1.9,0.53c4.3,1.21,7.81,6.02,7.81,10.72c0,5.36-3.48,8.68-9.09,8.68
			L1380.45,285.9z"/>
		<path class="st8" d="M1379.16,330.93l0.45-0.91l1.06-1.14c0.9-0.96,1.38-2.32,1.38-3.92c0-0.78-0.14-1.62-0.39-2.45
			c-0.19-0.61-0.31-1.12-0.31-1.34c0-0.48,0.36-0.93,0.73-0.93c0.15,0,0.36,0.13,0.57,0.38l1.13,1.28c0.71,0.8,0.94,0.94,1.82,1.14
			l0.08-1.06l0.07-1.24c0-1.81-0.66-3.84-1.67-5.12c-0.6-0.77-0.88-1.24-0.88-1.51c0-0.28,0.2-0.54,0.41-0.54
			c0.07,0,0.18,0.06,0.31,0.15c0.73,0.55,1.11,0.77,1.31,0.77c0.37,0,0.7-0.91,0.7-1.91c0-1.44-0.6-3.09-1.55-4.23
			c-0.49-0.59-0.79-0.96-0.91-1.13c-0.11-0.15-0.15-0.29-0.15-0.43c0-0.33,0.27-0.56,0.66-0.56c0.29,0,0.46,0.07,0.94,0.38
			c0.22,0.15,0.43,0.23,0.58,0.23c0.59,0,0.8-0.83,0.8-3.08l-0.02-0.93l-0.08-1.37c-0.09-1.6-0.23-1.89-0.91-1.89h-0.6
			c-3.7,0-5.42-2.34-6.37-8.65c-0.69-4.56-2.39-7.79-4.47-8.49c-1.25-0.41-1.69-0.69-1.69-1.02c0-0.21,0.35-0.42,0.72-0.42
			c0.27,0,0.91,0.17,1.43,0.38c3.02,1.22,5.57,1.82,7.79,1.82c3.63,0,6.49-2.67,6.49-6.06c0-2.59-1.23-5.22-3.45-7.35
			c-0.6-0.59-1.26-0.97-1.89-1.14l-0.15-0.01l-0.38,0.13l0.16,1.09l0.3,0.76l0.08,0.32c0,0.16-0.16,0.29-0.36,0.29
			c-0.22,0-0.43-0.12-0.56-0.31l-1.36-2.05c-1.08-1.62-3.45-2.97-5.21-2.97c-0.62,0-1.02,0.28-1.02,0.72c0,0.21,0.21,0.61,0.46,0.89
			c0.39,0.44,0.69,0.96,0.69,1.21l-0.08,0.31c-0.08,0.17-0.19,0.29-0.3,0.3l-0.08,0.01c-0.37,0-0.55-0.17-2.2-2.05
			c-1.35-1.54-4.11-3.05-5.59-3.05c-0.21,0-0.41,0.09-0.56,0.24c-0.09,0.1-0.15,0.21-0.15,0.29c0,0.23,0.2,0.53,0.53,0.85
			c0.47,0.43,0.84,0.94,0.84,1.16c0,0.15-0.2,0.28-0.43,0.28c-0.43,0-1.41-0.63-3.22-2.05c-2.83-2.22-4.09-4.32-4.09-6.75
			c0-2.93,2.09-5.23,4.77-5.23c1.57,0,3.65,0.75,5.08,1.82l3.71,2.8c1.7,1.29,3.78,1.98,5.96,1.98c0.47,0,0.92-0.11,1.31-0.31
			c0.33-0.17,0.53-0.36,0.53-0.51c0-0.09-0.28-0.22-0.69-0.33c-1.34-0.32-2.42-0.78-3.18-1.36l-3.79-2.87
			c-1.41-1.07-2.39-1.75-2.96-2.05c-2-1.05-2.39-1.3-2.39-1.53c0-0.12,0.19-0.22,0.43-0.22c0.2,0,0.43,0.05,0.67,0.15l1.97,0.84
			c0.63,0.26,1.7,0.9,3.18,1.89c4.06,2.71,6.12,3.58,8.5,3.58c2.27,0,3.94-1.61,3.94-3.79c0-0.43-0.11-0.91-0.32-1.31l-0.38-0.75
			c-0.13-0.27-0.38-0.47-0.45-0.38l-0.23,0.3l-0.23,1.6c-0.01,0.06-0.09,0.24-0.23,0.53c-0.14,0.3-0.32,0.56-0.53,0.76
			c-0.41,0.4-0.76,0.54-1.39,0.54c-1.17,0-2.49-0.63-6.03-2.89c-3.59-2.28-6.83-3.48-9.4-3.48c-5.45,0-9.85,4.39-9.85,9.83
			c0,7.59,4.63,11.02,19.17,14.19c5.53,1.2,7.96,2.82,7.96,5.28c0,2.25-1.81,3.66-4.69,3.66c-0.87,0-1.56-0.05-2.05-0.15
			c-0.49-0.1-3.09-0.81-7.81-2.13c-3.25-0.9-6.9-1.41-10.12-1.41c-5.7,0-9.55,1.69-12.16,5.36c-0.3,0.43-0.61,0.69-0.81,0.69
			c-0.15,0-0.38-0.11-0.64-0.31l-1.06-0.84c-0.75-0.58-1.93-1.04-2.72-1.04c-0.58,0-1.12,0.23-1.6,0.66
			c-0.38,0.34-0.66,0.52-0.77,0.52c-0.43,0-1.2-0.95-1.8-2.19c-0.85-1.78-1.29-3.54-1.29-5.16c0-0.76,0.24-1.28,0.57-1.28
			c0.26,0,0.46,0.2,0.57,0.6l0.6,2.2c0.34,1.23,1.03,2.2,1.55,2.2c0.23,0,0.64-0.33,1.1-0.91c0.28-0.35,0.48-0.71,0.61-1.06
			c0.47-1.39,0.59-1.59,0.96-1.59c0.44,0,0.67,0.27,0.97,1.66c0.06,0.26,0.14,0.64,0.5,1.3c0.31,0.57,0.61,1.04,0.91,1.36
			c0.23,0.25,0.51,0.39,0.78,0.39c0.67,0,1.28-1.11,1.28-2.34l-0.01-0.32l-0.09-1.41c0-0.55,0.09-0.71,0.39-0.71
			c0.18,0,0.32,0.09,0.53,0.37c0.33,0.42,0.76,0.78,1.29,1.06c0.46,0.25,0.83,0.38,1.08,0.38c0.22,0,0.48-0.14,0.74-0.38
			c0.21-0.19,0.32-0.41,0.32-0.59c0-0.22-0.27-0.57-1.08-1.37c-0.43-0.44-0.95-1.47-1.52-3.03c-0.21-0.6-0.5-1-0.71-1
			c-0.06,0-0.23,0.06-0.5,0.16l-0.98,0.37l-0.68,0.3l-0.26,0.06c-0.32,0-0.58-0.23-0.58-0.52c0-0.29,0.69-1.11,1.52-1.8
			c0.6-0.5,0.96-1.25,0.98-2.05c0.05-1.27,0.28-2.28,0.53-2.28l0.23-2.65c0.11-1.33,0.66-3.84,1.14-5.22
			c0.09-0.28,0.21-0.47,0.3-0.47c0.21,0,0.4,0.57,0.4,1.2l-0.02,0.39l-0.04,0.77c0,0.96,0.15,1.46,0.45,1.46
			c0.33,0,0.7-0.48,1.03-1.31l0.68-1.74c0.2-0.51,0.3-0.99,0.3-1.42c0-1.47-0.88-2.54-2.11-2.54l-0.55,0.09
			c-0.29,0.1-0.47,0.15-0.54,0.15c-0.4,0-0.73-0.44-0.73-0.95l0.06-1.09l-0.07-1.52l-0.3-1.59l-0.08-0.76l-0.68,0.38l-0.84,0.68
			l-1.21,0.98l-0.99,0.84c-0.17,0.15-0.37,0.23-0.56,0.23c-0.58,0-0.65-0.16-0.65-1.34v-0.3c0-0.96-0.41-1.7-1.97-3.52
			c-0.09-0.11-0.21-0.25-0.38-0.45l-0.3,0.53l-0.83,1.36l-0.83,2.12l-0.16,1.36c-0.04,0.39-0.19,0.7-0.34,0.7
			c-0.16,0-0.42-0.2-0.71-0.54c-1.16-1.33-1.53-1.57-3.26-2.19l-0.15,0.53c-0.28,0.9-0.43,1.43-0.46,1.6l-0.08,1.44v0.61l0.01,0.48
			c0,0.42-0.15,0.66-0.41,0.66l-0.05-0.01c-0.03-0.01-0.18-0.14-0.45-0.38c-0.17-0.16-0.5-0.24-0.92-0.24
			c-1.41,0-2.31,0.76-2.31,1.98c0,0.91,0.31,1.58,1.71,3.71c0.62,0.94,1.34,1.69,1.62,1.69c0.19,0,0.34-0.5,0.34-1.08l-0.14-0.91
			c-0.14-0.43-0.22-0.83-0.22-1.16c0-0.42,0.12-0.65,0.36-0.65c0.68,0,1.39,1.97,1.68,4.7l0.3,2.8c0.11,1,0.42,2.02,0.91,3.03
			c0.69,1.41,1.37,2.38,1.97,2.8c0.73,0.51,1.17,1.01,1.17,1.29c0,0.24-0.19,0.45-0.4,0.45c-0.02,0-0.54-0.18-1.53-0.54l-0.64-0.09
			c-1.51,0-2.02,0.87-2.02,3.47c0,3.15,2.13,7.69,4.48,9.58l3.48,2.81c1.77,1.42,3.11,3.78,3.11,5.46c0,2.22-2.43,4.39-6.59,5.91
			l-2.5,0.9c-1.94,0.71-2.72,1.96-3.49,5.61c0.99-0.3,1.43-0.38,2.09-0.38l0.34,0.01l1.13,0.02c1.02,0,1.75-0.61,1.75-1.46v-0.68
			c0-0.21,0.28-0.48,0.68-0.69c0.68-0.33,1.03-0.5,1.06-0.53l0.84-0.68c0.13-0.11,0.28-0.17,0.42-0.17c0.23,0,0.41,0.22,0.41,0.47
			c0,0.19-0.06,0.42-0.15,0.68c-0.26,0.67-0.4,1.58-0.4,2.6c0,1.86,0.3,2.86,1.23,4.22c0.09-0.5,0.16-0.83,0.23-0.98
			c0.15-0.38,0.59-1.07,1.29-2.04c1.14-1.6,1.99-3.56,1.99-4.61l-0.02-0.32l-0.23-1.74c0-0.32,0.14-0.61,0.38-0.83
			c0.16-0.14,0.35-0.22,0.52-0.22c0.32,0,0.52,0.19,0.78,0.75c0.18,0.42,0.39,0.68,0.54,0.68c0.27,0,0.79-0.69,1.12-1.51
			c0.25-0.6,0.38-1.14,0.38-1.6c0-0.28-0.08-0.61-0.23-0.97c-0.15-0.38-0.24-0.67-0.24-0.86c0-0.19,0.06-0.29,0.32-0.5
			c0.12-0.09,0.25-0.15,0.38-0.15c0.15,0,0.3,0.06,0.45,0.15l0.68,0.45c0.23,0.15,0.44,0.23,0.61,0.23c0.31,0,0.74-0.34,1.06-0.84
			c0.66-1.01,1.07-1.84,1.07-2.16c0-0.2-0.12-0.35-0.54-0.64c-1.51-1.06-2.5-2.68-2.5-4.05c0-0.32,0.07-0.68,0.23-1.1l0.76-2.05
			c0.38-1.03,0.59-1.57,0.6-1.6l0.22-0.08c0.26,0,0.41,0.21,0.41,0.58c0,0.25-0.06,0.54-0.18,0.86c-0.18,0.5-0.32,1.1-0.32,1.44
			c0,0.55,0.28,0.84,0.79,0.84c0.38,0,0.81-0.1,1.27-0.3c2.3-0.99,4.11-1.53,5.2-1.53c1.03,0,1.67,0.23,2.75,0.99
			c0.29,0.2,0.53,0.31,0.7,0.31c0.13,0,0.3-0.12,0.44-0.31c0.09-0.13,0.15-0.26,0.15-0.38c0-0.27-0.16-0.63-0.46-0.99
			c-0.39-0.48-0.54-0.78-0.54-1.07c0-0.24,0.16-0.39,0.41-0.39c1.19,0,3.05,3.76,4.83,9.72c1.4,4.71,1.79,5.18,6.28,7.73
			c3.81,2.15,5.25,4.28,5.25,7.74c0,3.4-0.94,7.77-2.91,13.48c-0.62,1.81-0.89,3.03-0.89,4.04c0,0.8,0.15,1.58,0.74,3.61
			c0.27,0.97,0.45,1.56,0.53,1.74C1378.64,330.01,1378.84,330.39,1379.16,330.93"/>
		<path class="st8" d="M1361.58,320.32c0.45-1.05,0.59-1.3,1.44-2.58c1.23-1.85,1.67-2.83,1.67-3.71v-1.22
			c0-1.14,0.21-1.67,0.66-1.67c0.16,0,0.32,0.08,0.4,0.23l0.38,0.6c0.12,0.19,0.32,0.31,0.53,0.31c0.22,0,0.63-0.3,0.86-0.63
			c0.55-0.83,0.88-1.89,0.88-2.7l-0.08-0.84l-0.07-0.85c0-0.46,0.19-0.66,0.62-0.66c0.3,0,0.42,0.12,0.67,0.68
			c0.16,0.37,0.38,0.61,0.57,0.61c0.21,0,0.45-0.17,0.64-0.46l0.6-0.91l0.46-0.69l0.11-0.36c0-0.21-0.16-0.4-0.57-0.69
			c-1.4-1.01-2.02-2.57-2.12-5.38c-0.08-2.13-0.2-3.53-0.38-4.17c-0.04-0.14-0.5-1.23-1.37-3.25c-0.34-0.8-0.64-1.71-0.91-2.73
			c-0.18-0.7-0.4-0.91-0.94-0.91c-2.06,0-3.62,1.76-3.62,4.08c0,1.37,0.57,3.52,1.61,6.15c1.46,3.68,1.85,4.99,1.85,6.29
			c0,2.78-1.11,3.99-4.95,5.38c-4.34,1.56-6.38,3.79-7.12,7.8c0.34-0.13,0.59-0.23,0.76-0.3c0.48-0.2,0.84-0.32,1.06-0.38l1.22-0.3
			c1.04-0.26,1.88-0.85,2.04-1.44l0.31-1.06c0.07-0.26,0.22-0.43,0.46-0.53l0.68-0.3l0.68-0.31l0.15,0.31l-0.3,0.99
			c-0.1,0.33-0.16,0.91-0.16,1.77C1360.29,318.14,1360.61,319.11,1361.58,320.32"/>
		<path class="st8" d="M1320.88,250.21c0.1,0.42,0.15,0.71,0.15,0.85c0,0.24-0.1,0.89-0.31,1.96l-0.13,1.54
			c0,1.36,0.24,2.8,0.66,3.99c0.39,1.09,0.49,1.43,0.49,1.73l-0.03,0.32c-0.07,0.31-0.19,0.54-0.29,0.54
			c-0.15,0-0.42-0.17-0.77-0.48c-0.87-0.75-1.82-1.14-2.8-1.14c-0.32,0-0.76,0.06-1.29,0.16l0.38,0.84l1.14,2.81l1.6,2.42l1.66,1.14
			c0.17,0.11,0.32,0.26,0.46,0.45c0.15,0.21,0.23,0.39,0.23,0.5c0,0.14-0.13,0.25-0.3,0.26l-1.52,0.07
			c-0.23,0.01-0.42,0.15-0.42,0.32c0,0.26,0.22,1.02,0.65,2.26l0.76,2.2l1.29,1.21l1.36,0.99c0.4,0.29,0.64,0.62,0.64,0.86
			c0,0.21-0.13,0.42-0.27,0.43l-0.76,0.07c-0.25,0.02-0.39,0.24-0.39,0.61c0,0.57,0.53,1.59,1.52,2.95c1.17,1.6,2,2.12,3.34,2.12
			h1.14c0.54,0,0.87,0.27,0.87,0.69c0,0.36-0.23,0.56-0.73,0.67c-1.05,0.22-1.37,0.43-1.37,0.91c0,0.19,0.14,0.48,0.38,0.83
			l0.61,0.84c0.5,0.69,1.07,1.15,1.44,1.15c0.21,0,0.68-0.21,1.11-0.7c0.68-0.78,1.45-1.42,2.46-1.66c2.63-0.67,3.18-0.94,3.18-1.55
			c0-0.21-0.1-0.52-0.3-0.87c-0.84-1.5-1.14-2.48-1.14-3.71c0-0.94-0.24-1.6-0.59-1.6c-0.14,0-0.38,0.23-0.62,0.61
			c-0.62,0.96-1.68,1.6-2.65,1.6c-2.62,0-5.78-4.11-7.35-9.55c-0.36-1.26-0.56-2.7-0.56-4.09c0-1.42,0.19-3.03,0.56-4.63
			c0.5-2.22,0.78-3.46,0.83-3.71l0.1-1.03C1325.29,254.51,1323.56,252.09,1320.88,250.21"/>
		<path class="st8" d="M1326.34,260.75c-0.56,1.06-1.07,3.43-1.07,4.94c0,0.88,0.29,1.58,0.66,1.58c0.12,0,0.28-0.14,0.41-0.38
			l0.83-1.52c0.14-0.25,0.27-0.52,0.54-0.93c0.3-0.45,0.53-0.89,0.53-1.12C1328.24,262.42,1327.41,261.31,1326.34,260.75"/>
		<path class="st8" d="M1334.67,294.93c0.17,0.17,0.29,0.29,0.38,0.38c0.33,0.33,0.53,0.53,0.61,0.6c1.48,1.53,1.7,1.68,2.41,1.68
			c0.66,0,2.04-0.38,2.82-0.77c0.33-0.17,0.53-0.37,0.53-0.52c0-0.1-0.27-0.41-0.76-0.84l-0.83-0.76c-0.64-0.57-1.57-1.1-2.02-1.1
			C1336.94,293.6,1336.05,293.98,1334.67,294.93"/>
		<path class="st8" d="M1352.26,308.65c0.81,0.34,1.1,0.48,1.52,0.76c0.68,0.45,1.08,0.7,1.21,0.75c0.23,0.1,0.64,0.15,1.2,0.15
			c0.35,0,0.66-0.05,0.92-0.15l1.6-0.6l1.51-0.53c0.41-0.15,0.68-0.38,0.68-0.59c0-0.11-0.34-0.27-0.84-0.4
			c-0.34-0.09-0.72-0.21-1.14-0.38c-1.86-0.75-2.14-0.86-2.8-0.86C1354.64,306.8,1353.14,307.52,1352.26,308.65"/>
		<path class="st8" d="M1371.43,323.88c0.5-1.22,0.86-1.43,2.57-1.52c1.95-0.11,3.8-3.59,3.8-5.95c0-0.23-0.08-0.43-0.18-0.43
			c-0.1,0-0.27,0.09-0.51,0.25c-0.54,0.36-0.92,0.58-1.13,0.68l-2.2,0.98c-1.47,0.65-2.76,2.61-2.76,4.16
			C1371.02,322.56,1371.12,323,1371.43,323.88"/>
		<path class="st6" d="M1338.69,258.02l0.75,1.06c0.17,0.24,1.48,1.18,1.64,1.18c0.23,0,0.35-0.17,0.48-0.66l0.3-1.14l0.08-1.26
			c0-1-0.44-1.38-2.51-1.91c-0.51-0.14-0.72-0.12-1.06-0.39c-0.32-0.25-0.73-0.46-0.91-0.46c-0.17,0-0.31,0.09-0.31,0.21l0.08,0.33
			l0.38,1.13L1338.69,258.02z"/>
		<path class="st6" d="M1346.8,258.01l-0.99,1.75c-0.24,0.27-0.37,0.41-0.38,0.42l-0.07,0.01c-0.4,0-0.81-0.92-0.84-1.88l-0.14-1.51
			c0.12-0.62,0.49-0.9,1.43-1.06c0.77-0.14,1.29-0.28,1.52-0.45c0.72-0.52,1.13-0.8,1.21-0.84l0.13-0.02c0.2,0,0.35,0.14,0.35,0.37
			l-0.02,0.1l-0.53,1.3L1346.8,258.01z"/>
		<path class="st6" d="M1344.83,263.17l1.21-0.6c0.22-0.11,0.41-0.16,0.58-0.16c0.59,0,1.03,0.44,1.03,1.23
			c0,0.87-0.68,2.03-1.6,3.7c-1,1.81-1.76,3.04-2.53,3.04c-1.09,0-2.63-1.73-4.14-4.63c-0.35-0.68-0.58-1.49-0.58-2.11
			c0-0.96,0.42-1.46,1.22-1.46c0.33,0,0.64,0.08,0.87,0.24l0.68,0.46c0.6,0.39,1.27,0.6,1.93,0.6
			C1343.97,263.47,1344.43,263.37,1344.83,263.17"/>
		<path class="st8" d="M1343.09,264.99l-0.84-0.15l-0.12-0.01c-0.48,0-0.72,0.27-0.72,0.82c0,0.77,0.6,2.18,1.38,3.28
			c0.14,0.2,0.36,0.32,0.58,0.32c0.49,0,0.84-0.93,1.09-2.45l0.23-1.13l0.02-0.22c0-0.47-0.14-0.63-0.52-0.63l-0.18,0.01"/>
	</g>
	<g>
		<path class="st6" d="M1512.31,284.77c1.32,1.75,3.17,2.89,4.7,2.89c0.47,0,1.29-0.12,2.04-0.31c0.41-0.11,0.75-0.15,1.01-0.15
			c0.37,0,0.52,0.14,0.52,0.48c0,0.26-0.18,0.91-0.39,1.42c-0.24,0.57-0.39,1.03-0.45,1.36l-0.3,1.59l-0.76,1.36l-1.06,0.99
			l-0.3,0.31v0.68v0.34c0,1.85-0.55,2.9-2.05,3.9c-0.12,0.07-0.3,0.2-0.53,0.38l-0.15,0.61c-0.34,1.4-0.59,2.29-0.76,2.64
			c-0.19,0.4-0.68,1.11-1.44,2.12c-0.92,1.2-1.51,2.18-1.89,3.11c-0.31,0.76-0.55,0.98-1.05,0.98c-0.75,0-1.48-0.94-1.61-2.04
			c-0.17,0.23-0.29,0.38-0.38,0.46l-0.9,0.6l-1.45,0.98c-0.63,0.44-1.04,0.74-1.21,0.91l-0.83,0.84c-0.15,0.15-0.3,0.23-0.44,0.23
			c-0.38,0-0.78-0.65-1.16-1.9l-0.76-2.49c-0.21-0.67-0.31-1.5-0.31-2.45c0-1.26,0.08-1.7,0.53-2.71c-1.52,0.16-1.94,0.25-2.73,0.54
			c-0.24,0.08-0.53,0.15-0.66,0.15c-0.25,0-0.4-0.17-0.4-0.47c0-0.17,0.13-0.69,0.3-1.12l0.99-2.57c0.77-2,3.23-3.82,5.19-3.82
			c0.47,0,1.11,0.13,1.93,0.41c0.5,0.16,0.89,0.24,1.15,0.24c0.88,0,1.58-0.65,1.58-1.45c0-0.4-0.27-0.84-0.61-0.99
			c-0.12-0.06-1.04-0.34-2.72-0.84c-1.28-0.38-1.91-0.85-3.34-2.51c-1.04-1.2-1.45-1.54-1.82-1.54c-0.29,0-0.45,0.19-0.45,0.53
			l0.07,1.01l0.03,0.47c0,2.1-0.63,4.11-2.15,6.89l-2.12,3.86c-1.01,1.84-1.44,3.23-1.44,4.63c0,1.53,0.66,2.88,1.51,3.11l1.14,0.3
			c0.14,0.04,0.27,0.12,0.38,0.24c0.15,0.15,0.23,0.31,0.23,0.43c0,0.16-0.14,0.42-0.38,0.7c-0.14,0.15-0.59,0.73-1.37,1.74
			c-1.31,1.71-2.12,2.32-3.71,2.8c-0.91,2.22-2.41,3.52-5.08,4.4l-0.3,0.52c-0.9,1.59-2.91,3.04-4.19,3.04h-0.29
			c-0.17,1.38-1.16,2.83-2.65,3.87c-1.03,0.71-1.61,1.15-1.74,1.28c-0.09,0.11-0.22,0.33-0.38,0.68c-0.34,0.76-0.66,1.07-1.08,1.07
			c-0.81,0-1.48-0.76-1.95-2.2c-0.31,0.19-0.54,0.35-0.69,0.45c-0.86,0.61-1.34,0.94-1.44,0.98c-0.35,0.17-1.23,0.43-2.65,0.76
			c-1.86,0.43-3.47,1.23-3.87,1.9l-0.68,1.13l-0.31,0.13c-0.37,0-0.8-0.52-0.98-1.19c-0.42-1.57-0.68-3.21-0.68-4.26
			c0-2.69,0.89-4.44,3.64-7.19l-0.01-0.65c0-4.18,3.19-7.02,7.89-7.02l0.76,0.02l2.58,0.15l0.24,0.01c1.39,0,2.68-0.53,4.08-1.68
			c1.85-1.51,2.39-2.45,2.39-4.14c0-0.54-0.15-1.15-0.73-3.05c-0.37-1.25-0.56-2.43-0.56-3.56c0-3.13,2.3-7.02,5.41-9.17
			c0.8-0.56,1.4-1.29,1.4-1.72c0-0.18-0.09-0.32-0.21-0.32c-0.2,0-0.54,0.21-0.96,0.59c-0.36,0.33-0.98,0.72-1.82,1.14l-1.21,0.6
			l-1.36,0.54c-0.42,0.16-0.63,0.39-0.63,0.67c0,0.17,0.06,0.4,0.18,0.69c0.1,0.25,0.15,0.44,0.15,0.55c0,0.17-0.13,0.47-0.38,0.88
			l-1.06,1.74c-1.04,1.71-1.79,2.44-3.11,3.03c-0.85,2.5-2.07,3.76-3.86,4.02c-1.43,2.88-2.69,3.88-5.23,4.16
			c-0.35,1.11-0.96,2.03-2.27,3.49c-0.54,0.59-0.87,1-0.98,1.21c-0.59,1.06-0.65,1.13-0.92,1.13c-0.35,0-1.14-0.52-1.74-1.13
			c-0.27-0.29-0.5-0.59-0.68-0.91l-0.68-1.21c-0.22-0.39-0.45-0.57-0.73-0.57l-0.48,0.03l-1.67,0.23c-1.05,0.14-2.54,1-3.03,1.74
			l-0.91,1.37c-0.09,0.14-0.23,0.22-0.36,0.22c-0.68,0-1.09-1.49-1.09-3.97c0-2.18,0.33-3.62,1.08-4.66l2.12-2.96
			c0.29-0.41,0.46-0.82,0.46-1.15c0-0.34-0.13-0.68-0.38-0.97c-0.45-0.53-0.88-0.86-1.21-0.91l-1.59-0.22
			c-0.29-0.05-0.4-0.12-0.4-0.24c0-0.14,0.08-0.32,0.25-0.52c0.52-0.66,1.17-1.23,1.9-1.67c1.88-1.15,3.11-1.6,4.37-1.6
			c1.28,0,2.68,0.46,3.96,1.3l2.2,1.44c0.31,0.21,0.67,0.31,1.06,0.31c1.02,0,1.78-0.6,2.5-1.98c0.7-1.32,1-2.39,1-3.51
			c0-2.85-2.04-4.9-4.86-4.9c-1.31,0-2.66,0.51-3.94,1.51c-0.39,0.3-0.64,0.58-0.76,0.83l-0.6,1.37c-0.14,0.33-0.36,0.53-0.54,0.53
			c-0.38,0-1.24-1.09-1.96-2.5c-0.37-0.74-0.74-1.65-1.06-2.73c-0.45-1.48-0.65-2.59-0.65-3.78l0.11-2.05
			c-1.03-1.61-1.37-2.78-1.37-4.69c0-0.69,0.1-1.23,0.54-2.66c-0.64-1.05-0.83-1.84-0.83-3.38l0.07-0.95l0.23-1.06l0.15-0.91
			c-0.73-0.95-0.94-1.6-1.67-4.92c-0.4-1.88-0.65-2.7-0.97-3.19c-0.15-0.21-0.23-0.38-0.23-0.45c0-0.44,1.06-0.84,2.27-0.84
			l1.07,0.08c-0.27-0.7-0.32-0.97-0.32-1.53c0-0.94,0.19-1.98,0.55-3.02c0.4-1.16,0.48-1.48,0.48-1.86c0-0.9-0.14-1.81-0.33-2.31
			l-0.6-1.51c-0.14-0.34-0.2-0.58-0.2-0.78c0-0.15,0.1-0.21,0.38-0.21c1.49,0,4.33,1.61,6.56,3.71c2.22,2.1,2.94,3.79,2.94,6.91
			l-0.13,1.66c2.06,1.81,2.96,3.31,2.96,4.93c0,1.19-0.39,1.98-1.53,3.1c-2.04,2.03-2.5,3.1-2.5,5.71c0,4.02,1.2,6.2,3.42,6.2
			c1.95,0,3.46-2.12,3.7-5.23l0.23-2.88c0.06-0.75,0.19-1.66,0.38-2.73c0.13-0.68,0.23-1.59,0.23-1.98c0-1.02-0.67-2.31-2.66-4.62
			c-2.12-2.49-2.85-3.83-2.85-5.77c0-2.33,1.61-4.04,3.8-4.04c0.54,0,0.82,0.08,1.47,0.42c0.03-1.32,0.09-1.56,0.84-3.42
			c0.59-1.46,1.22-2.49,1.52-2.49c0.1,0,0.26,0.11,0.45,0.3c0.33,0.32,0.66,0.6,0.99,0.83c0.47,0.33,0.71,0.5,0.76,0.53
			c0.17,0.14,0.39,0.37,0.68,0.69c0.47-1.69,0.96-2.5,2.35-3.87c1.06-1.04,1.45-1.36,1.66-1.36c0.16,0,0.35,0.14,0.54,0.38
			l0.91,1.21l1.28,1.45c0.49,0.55,0.67,1.02,0.91,2.34l0.76-0.45l1.21-0.68c0.23-0.12,0.53-0.33,0.92-0.61
			c0.21-0.15,0.38-0.24,0.48-0.24c0.13,0,0.27,0.22,0.36,0.54l0.45,1.74l0.99,1.97c0.29,0.59,0.38,1.04,0.38,1.95l0,0.47l0.51-0.02
			c1.49,0,2.78,1.77,2.78,3.8c0,2.7-2.15,6.19-4.96,8.04c-0.26,0.91-0.32,1.28-0.32,2.01c0,6.03,1.59,7.29,10.85,8.67
			c2.32,0.35,4.4,0.77,6.21,1.29c0.3,0.09,2.3,0.74,5.99,1.97c2.05,0.68,3.42,0.99,4.49,0.99c1.13,0,1.75-0.33,1.75-0.92
			c0-1.03-1.52-1.96-6.16-3.78l-6.59-2.57c-6.7-2.62-9.87-6.71-9.87-12.74c0-7.02,5.26-12.28,12.29-12.28c2.65,0,5.23,0.55,8.95,1.9
			c4.79,1.74,5.03,1.82,5.55,1.82c0.92,0,1.43-0.63,1.57-1.97c0.12-1.14,0.43-1.6,1.05-1.6c0.93,0,1.94,0.86,2.66,2.28
			c0.62,1.23,0.98,2.67,0.98,3.93c0,2.5-1.31,4.14-3.71,4.63c-1.6,2.1-3.63,3.14-6.1,3.14c-3.02,0-4.52-0.6-9.67-3.82
			c-1.84-1.16-2.63-1.44-3.98-1.44c-1.81,0-3.15,1.12-3.15,2.64c0,1.39,1.12,2.3,3.64,2.97c1.5,0.39,1.72,0.51,2.5,1.28
			c0.61-0.14,0.88-0.18,1.26-0.18c2.46,0,5.5,1.33,8.06,3.52c4.67,1.44,8.83,6.48,8.83,10.71c0,4.67-4.05,8.86-8.58,8.86
			C1516.95,285.7,1514.51,285.32,1512.31,284.77"/>
		<path class="st8" d="M1509.58,305.76l0.3-0.83l0.31-1.07c0.06-0.19,0.34-0.62,0.83-1.28c0.77-1.01,1.16-2.28,1.16-3.77
			c0-0.47-0.12-0.9-0.4-1.47c-0.15-0.3-0.23-0.54-0.23-0.7c0-0.1,0.06-0.22,0.16-0.35c0.09-0.13,0.2-0.21,0.3-0.23l0.05-0.01
			c0.19,0,0.52,0.22,0.78,0.53c0.32,0.39,0.6,0.61,0.77,0.61c0.34,0,0.7-0.58,0.9-1.44c0.1-0.46,0.15-0.71,0.15-0.76
			c0-0.37-0.31-1.32-0.68-2.12c-0.15-0.3-0.22-0.56-0.22-0.77c0-0.27,0.18-0.49,0.42-0.49c0.22,0,0.58,0.24,1.01,0.65
			c0.21,0.2,0.41,0.31,0.58,0.31c0.47,0,0.82-0.48,1.17-1.67c0.22-0.73,0.3-1.06,0.3-1.18c0-0.22-0.1-0.35-0.27-0.35l-0.26,0.02
			l-0.9,0.09c-1.38,0-3.34-0.95-4.26-2.06l-2.12-2.58c-0.82-1-1.96-2.51-1.89-2.51l-1.75-1.14c-0.28-0.19-0.45-0.42-0.45-0.62
			c0-0.29,0.29-0.48,0.72-0.48c0.4,0,1.64,0.44,3.9,1.4c2.18,0.92,5.62,1.68,7.68,1.68c3.62,0,6.61-2.93,6.61-6.49
			c0-1.95-0.87-3.74-3-6.25c-0.4-0.47-1.08-0.93-1.4-0.93c-0.25,0-0.42,0.18-0.42,0.45c0,0.21,0.08,0.5,0.23,0.85
			c0.1,0.24,0.15,0.48,0.15,0.7c0,0.35-0.13,0.55-0.36,0.55c-0.48,0-0.97-0.78-1.38-2.15c-0.5-1.69-1.49-2.7-3.79-3.87
			c-0.88-0.45-2.03-0.85-2.4-0.85c-0.15,0-0.25,0.13-0.25,0.33c0,0.29,0.11,0.59,0.3,0.9c0.33,0.51,0.55,1,0.61,1.45l0,0.07
			c0,0.3-0.15,0.46-0.42,0.46c-0.49,0-0.6-0.13-1.7-1.82c-0.57-0.87-2.1-2.02-3.41-2.58c-0.41-0.18-0.85-0.28-1.29-0.31l-0.04,0
			c-0.27,0-0.49,0.13-0.49,0.3c0,0.06,0.12,0.3,0.34,0.7l0.11,0.43c0,0.23-0.16,0.41-0.36,0.41c-0.45,0-1.86-1.15-2.97-2.43
			c-1.2-1.39-1.97-3.15-1.97-4.54c0-2.9,2.77-5.48,5.87-5.48c0.78,0,1.44,0.14,1.94,0.39l2.65,1.36l3.11,2.05
			c1.79,1.17,4.24,2.05,5.72,2.05c0.55,0,0.97-0.08,2.39-0.47c0.74-0.2,1.2-0.5,1.2-0.77l-0.03-0.06l-0.26-0.15l-1.67-0.14
			c-0.93-0.09-3.03-1.04-4.7-2.13l-3.49-2.27l-3.11-1.29c-0.24-0.09-0.39-0.25-0.39-0.4c0-0.16,0.16-0.29,0.36-0.29
			c0,0,0.29,0.06,0.86,0.15l2.88,0.84c0.73,0.21,1.89,0.74,3.49,1.59c3.16,1.68,5.22,2.42,6.73,2.42c1.75,0,3.04-1.2,3.04-2.84
			c0-0.55-0.12-1.44-0.3-2.17c-0.09-0.35-0.25-0.69-0.46-0.99c-0.13-0.19-0.27-0.3-0.37-0.3c-0.22,0-0.34,0.23-0.34,0.62l0.04,0.52
			l0.03,0.44c0,1.4-0.55,1.89-2.09,1.89c-1.26,0-2.95-0.51-6.81-2.03c-3.61-1.42-5.87-1.97-8.11-1.97c-5.71,0-10.71,4.66-10.71,9.96
			c0,4.58,3.05,8.09,9.27,10.65l6.44,2.65c5.33,2.19,7.29,3.76,7.29,5.83c0,1.73-1.61,2.84-4.11,2.84c-1.08,0-2.43-0.3-4.91-1.09
			c-6.03-1.92-9.95-2.72-13.4-2.72c-5.62,0-9.63,1.54-12.82,4.92c-0.42,0.45-0.67,0.58-1.04,0.58c-0.26,0-0.52-0.1-1.08-0.43
			c-0.57-0.33-1.21-0.55-1.66-0.55c-0.55,0-1.42,0.48-1.82,1l-0.76,0.98c-0.22,0.29-0.47,0.46-0.67,0.46
			c-0.55,0-1.52-0.94-2.13-2.05c-0.37-0.68-0.63-1.35-0.76-1.97c-0.1-0.48-0.16-1.25-0.16-2.08l0.08-1.41l0.23-1.51
			c0.11-0.73,0.19-1.16,0.23-1.29c0.06-0.18,0.2-0.3,0.36-0.3c0.39,0,0.57,0.36,0.57,1.19l-0.02,0.48l-0.01,0.34
			c0,2.16,0.86,4.13,1.8,4.13c0.74,0,1.39-1.33,1.93-3.95c0.11-0.53,0.32-0.83,0.58-0.83c0.3,0,0.49,0.39,0.71,1.52
			c0.14,0.73,0.62,1.75,1.14,2.42c0.29,0.38,0.61,0.61,0.86,0.61c0.62,0,1.02-0.93,1.33-3.11c0.13-0.85,0.38-1.37,0.67-1.37
			c0.12,0,0.24,0.06,0.32,0.16c0.05,0.06,0.23,0.34,0.53,0.83c0.18,0.31,0.47,0.57,0.83,0.76c0.38,0.2,0.68,0.3,0.88,0.3
			c0.24,0,0.49-0.11,0.71-0.3c0.34-0.3,0.53-0.53,0.53-0.62c0-0.11-0.15-0.35-0.45-0.67c-0.5-0.53-0.88-1.25-1.36-2.51
			c-0.32-0.83-0.54-1.4-0.68-1.74c-0.12-0.28-0.25-0.46-0.38-0.53l-0.24-0.06l-0.44,0.06c-0.09,0.02-0.62,0.17-1.59,0.45l-0.5,0.08
			c-0.21,0-0.35-0.14-0.35-0.36c0-0.2,0.27-0.57,0.62-0.85c1.92-1.53,3.06-4.08,3.48-7.81c0.26-2.26,0.55-3.12,1.51-4.47
			c0.2-0.28,0.38-0.45,0.47-0.45c0.3,0,0.46,0.23,0.46,0.67c0,0.29-0.08,0.66-0.25,1.08c-0.11,0.29-0.17,0.6-0.17,0.92l0.01,0.29
			l0.15,0.46l0.83-0.31l0.91-1.06c0.54-0.63,1-2.06,1-3.11c0-0.72-0.18-1.23-0.61-1.75c-0.48-0.57-0.81-0.8-1.15-0.8l-0.52,0.04
			l-0.54,0.04c-0.49,0-0.73-0.15-0.73-0.45l0.13-0.58l0.08-0.83l-0.45-1.89l-0.38-0.91l-0.23-0.76l-0.53,0.38l-1.14,0.68
			c-0.29,0.18-0.6,0.46-0.91,0.84c-1.08,1.31-1.14,1.37-1.58,1.37c-0.27,0-0.43-0.1-0.43-0.29l0.04-0.32
			c0.15-0.69,0.23-1.22,0.23-1.57c0-1.32-0.96-3.31-2.12-4.41c-1.58,1.51-2.43,3.18-2.43,4.78v0.91c0,0.35-0.11,0.53-0.35,0.53
			h-0.03c-0.19-0.03-0.38-0.17-0.53-0.38l-0.91-1.21c-0.07-0.09-0.47-0.42-1.22-0.99c-0.14-0.11-0.35-0.29-0.6-0.52l-0.31,0.6
			c-0.75,1.5-1.01,2.4-1.06,3.64c-0.04,1.01-0.12,1.3-0.36,1.3c-0.12,0-0.28-0.06-0.48-0.17c-1.15-0.64-1.25-0.69-1.75-0.69
			c-1.36,0-2.3,0.98-2.3,2.41c0,0.56,0.32,1.41,0.94,2.52c0.69,1.24,1.74,2.37,2.19,2.37c0.13,0,0.16-0.09,0.16-0.47l0-0.16
			l-0.07-1.29l-0.15-0.99l-0.01-0.13c0-0.29,0.11-0.42,0.34-0.42c0.68,0,1.29,2.01,1.79,6.01c0.44,3.52,1.41,5.95,2.95,7.35
			c0.39,0.36,0.62,0.65,0.62,0.82c0,0.13-0.13,0.24-0.3,0.24c-0.22,0-0.57-0.14-1-0.38c-0.28-0.16-0.56-0.24-0.82-0.24
			c-0.76,0-1.6,0.88-1.75,1.84l-0.68,4.32l-0.53,6.07c-0.1,1.15,0.05,2.69,0.45,4.54c0.35,1.63,0.53,2.84,0.53,3.59
			c0,4.54-2.83,8.14-7.51,9.52l-4.85,1.43c-3.02,0.9-4.51,2.89-4.92,6.59c0.78-0.62,1.01-0.71,2.2-0.9l1.43-0.23
			c0.61-0.1,1.05-0.23,1.29-0.38c0.14-0.08,0.41-0.37,0.84-0.84l1.29-1.43c0.49-0.55,0.92-0.86,1.19-0.86c0.18,0,0.33,0.2,0.33,0.44
			c0,0.28-0.19,0.72-0.53,1.25c-0.36,0.56-0.55,1.24-0.55,1.95c0,0.97,0.26,1.58,1.24,2.97c0.12-0.46,0.23-0.76,0.31-0.91
			c0.13-0.24,0.5-0.77,1.14-1.59c1.05-1.36,1.8-2.78,1.81-3.42c0.02-1.17,0.12-1.55,0.42-1.55c0.25,0,0.3,0.06,0.41,0.72
			c0.03,0.16,0.11,0.32,0.23,0.46c0.18,0.19,0.35,0.3,0.46,0.3c0.1,0,0.3-0.11,0.6-0.3c0.52-0.35,0.93-0.71,1.21-1.06
			c0.32-0.39,0.57-0.85,0.76-1.36c0.25-0.67,0.39-1.15,0.39-1.43l-0.01-0.98c0-0.26,0.11-0.47,0.25-0.47c0.18,0,0.57,0.4,0.81,0.84
			c0.17,0.29,0.27,0.38,0.49,0.38h0.04c0.27-0.03,0.51-0.14,0.68-0.31c0.92-0.9,1.52-2.01,1.52-2.84l-0.08-1.4l-0.3-1.15l-0.01-0.1
			c0-0.24,0.17-0.44,0.37-0.44c0.34,0,0.72,0.49,1.24,1.6c0.24,0.53,0.47,0.77,0.69,0.77c0.36,0,0.64-0.27,1.36-1.3l0.68-0.98
			c0.15-0.22,0.23-0.48,0.23-0.76c0-0.26-0.08-0.53-0.23-0.75l-0.61-0.91c-0.1-0.16-0.15-0.42-0.15-0.76c0-1.03,0.37-2.2,1.14-3.56
			c0.56-1,0.89-1.63,0.98-1.9c0.12-0.31,0.25-0.46,0.42-0.46c0.13,0,0.26,0.18,0.26,0.38l-0.07,0.84v0.61v0.6
			c0.1,0.28,0.29,0.39,0.65,0.39c0.23,0,0.5-0.06,0.79-0.15l1.89-0.68c0.45-0.16,1.03-0.45,1.74-0.84c2.97-1.64,3.89-1.99,5.35-1.99
			c0.87,0,2,0.34,3.59,1.08c0.33,0.15,0.59,0.24,0.78,0.24c0.22,0,0.46-0.14,0.66-0.38c0.15-0.18,0.22-0.39,0.22-0.58
			c0-0.28-0.1-0.6-0.3-0.94c-0.24-0.42-0.46-0.95-0.46-1.13c0-0.21,0.13-0.33,0.35-0.33c0.17,0,0.43,0.18,0.57,0.4
			c0.23,0.36,0.81,1.37,1.74,3.03c1.41,2.51,3.25,4.26,4.85,4.62l3.33,0.76c1.03,0.23,1.29,0.63,1.29,1.92
			c0,2.35-1.12,4.42-3.03,5.65l-2.73,1.75c-0.99,0.63-1.82,2.37-1.82,3.82c0,0.94,0.23,2.59,0.53,3.9l0.53-0.53l1.29-0.76l1.14-1.14
			l0.6-1.67l0.6-1.52c0.3-0.73,0.65-1.21,0.88-1.21c0.26,0,0.41,0.41,0.41,1.16l-0.01,0.21l0,0.28
			C1508.59,303.65,1508.74,304.13,1509.58,305.76"/>
		<path class="st8" d="M1464.71,327.38c0-3.61,1.31-5.18,6.53-7.83c10.3-5.22,15.85-10.01,15.85-13.65c0-0.73-0.24-1.81-0.92-4.08
			c-0.42-1.4-0.65-2.57-0.65-3.29c0-1.68,1.38-4.22,3.16-5.8l1.44-1.29c0.79-0.71,1.38-1.73,1.38-2.39l-0.01-0.34l-0.02-0.45
			c0-0.75,0.29-1.03,1.08-1.06l0.68-0.07c0.35-0.11,0.55-0.16,0.58-0.16c0.24,0,0.48,0.14,0.63,0.38l0.37,0.61l0.53,0.6
			c0.17,0.2,0.35,0.31,0.49,0.31c0.09,0,0.3-0.08,0.58-0.22c0.36-0.2,0.65-0.29,0.92-0.29c0.4,0,0.6,0.21,0.6,0.65
			c0,1.52-0.99,3.72-2.73,6.07c-2.91,3.94-3.86,6.05-3.86,8.58c0,1.98,0.57,3.71,1.67,5.14c0.19,0.26,0.31,0.45,0.31,0.56
			c0,0.2-0.19,0.54-0.53,0.96c-0.13,0.16-0.29,0.36-0.46,0.61c-0.6,0.87-1.01,1.21-1.41,1.21c-0.3,0-0.58-0.24-0.71-0.61l-0.3-0.83
			c-0.09-0.24-0.26-0.39-0.43-0.39c-0.06,0-0.19,0.12-0.33,0.31c-0.2,0.25-0.3,0.55-0.3,0.83v1.29c0,0.51-0.19,1.04-0.53,1.51
			c-0.29,0.4-0.65,0.79-1.06,1.13c-0.29,0.25-0.5,0.38-0.6,0.38c-0.22,0-0.43-0.24-0.54-0.61l-0.46-1.52
			c-0.07-0.22-0.22-0.38-0.38-0.38c-0.25,0-0.47,0.43-0.53,1.06c-0.15,1.72-0.45,2.76-0.9,3.18l-1.06,0.98
			c-0.34,0.33-0.74,0.56-0.96,0.56c-0.22,0-0.41-0.1-0.48-0.25l-0.53-1.14c-0.06-0.14-0.19-0.23-0.33-0.23
			c-0.31,0-0.53,0.6-0.65,1.75c-0.27,2.72-0.84,3.95-2.35,5c-1.18,0.84-1.44,1.11-1.89,2.12c-0.66-0.98-0.92-1.8-0.92-3.02
			c0-0.63,0.1-1.09,0.31-1.44c0.32-0.57,0.49-1,0.49-1.26c0-0.19-0.12-0.33-0.27-0.33c-0.07,0-0.21,0.11-0.38,0.3
			c-0.21,0.25-0.55,0.5-0.98,0.76c-1.36,0.79-1.57,1.07-1.89,2.58c-0.44,2.04-1.41,2.98-3.48,3.4c-2.57,0.53-2.72,0.59-3.64,1.45
			L1464.71,327.38z"/>
		<path class="st8" d="M1459.79,249.23v0.76l0.01,1.12c0,0.4-0.04,0.69-0.16,1.23c-0.24,1.05-0.3,1.42-0.3,1.71
			c0,1.45,0.2,2.17,1.06,3.66c0.47,0.83,0.78,1.83,0.78,2.55c0,0.3-0.12,0.48-0.33,0.48c-0.13,0-0.27-0.08-0.37-0.22l-0.61-0.84
			c-0.48-0.66-0.94-0.84-2.17-0.84l-1.31,0.08c0.53,1.29,0.69,1.78,0.91,2.65c0.61,2.48,0.7,2.66,2.05,3.87
			c1.35,1.22,1.48,1.38,1.48,1.82c0,0.34-0.24,0.61-0.52,0.61l-0.5-0.08l-0.3-0.03c-0.41,0-0.79,0.76-0.79,1.6
			c0,0.48,0.19,1.25,0.48,1.91c0.19,0.45,0.37,0.76,0.53,0.91l0.76,0.76c0.2,0.19,0.31,0.47,0.31,0.78c0,0.37-0.21,0.68-0.46,0.68
			c-0.15,0-0.39-0.09-0.68-0.24c-0.19-0.09-0.37-0.15-0.53-0.15c-0.34,0-0.5,0.21-0.5,0.62l0.12,1.13l0.46,1.96
			c0.1,0.44,0.38,0.94,0.83,1.45c0.39,0.44,0.78,0.74,1.14,0.91c0.96,0.41,1.46,0.65,1.52,0.68c0.14,0.11,0.22,0.33,0.22,0.6
			c0,0.28-0.22,0.53-0.5,0.53c-0.08,0-0.35-0.06-0.78-0.15l-0.77-0.07c-0.77,0-0.82,0.04-0.82,0.64c0,0.38,0.05,0.78,0.15,1.18
			l0.3,1.21c0.32,1.28,0.74,1.98,1.19,1.98c0.1,0,0.29-0.11,0.55-0.31c1.1-0.84,3.3-1.59,4.68-1.59c1.42,0,3.05,0.17,3.66,0.38
			c0.35,0.12,0.59,0.18,0.72,0.18c0.19,0,0.25-0.19,0.26-0.86l0.16-1.36l0.3-2.35l0.22-1.74v-0.99c-0.28,0.23-0.48,0.41-0.61,0.53
			c-1.29,1.21-2.1,1.59-3.43,1.59c-3.49,0-5.49-3.92-5.49-10.75c0-2.82,0.41-6.81,1.19-11.38c0.16-0.96,0.24-1.63,0.24-2.1
			C1464.12,253.42,1462.55,250.99,1459.79,249.23"/>
		<path class="st8" d="M1464.95,266.2l0.68-0.68l0.68-0.61c0.57-0.5,1.02-1.55,1.02-2.33c0-0.36-0.07-0.69-0.26-1.08
			c-0.26-0.57-0.77-1.08-1.08-1.08c-0.26,0-0.49,0.62-0.59,1.6l-0.15,1.14l-0.22,1.14l-0.08,1.14V266.2z"/>
		<path class="st8" d="M1458.28,297.2c0.78,0.29,0.94,0.42,1.74,1.36c1.05,1.22,1.63,1.51,3.03,1.51c0.38,0,0.74-0.05,1.07-0.15
			l0.98-0.3l0.76-0.23c0.36-0.1,0.61-0.26,0.61-0.38c0-0.16-0.6-0.66-1.51-1.28c-0.61-0.41-1.22-0.77-1.82-1.06
			c-0.66-0.32-1.2-0.47-1.74-0.47C1460.32,296.2,1459.3,296.53,1458.28,297.2"/>
		<path class="st8" d="M1468.51,318.53c0-2.45,2.41-4.45,5.34-4.45c1.47,0,2.32,0.29,2.32,0.79c0,0.39-0.65,0.91-2.05,1.66
			c-0.14,0.07-0.86,0.47-2.2,1.21c-1.53,0.84-2,1.08-3.34,1.66L1468.51,318.53z"/>
		<path class="st8" d="M1499.35,300.15c1.08-0.22,1.44-0.5,1.97-0.52l1.36,0.07c0.17-0.06,0.47-0.27,0.91-0.61
			c0.24-0.19,0.6-0.44,1.06-0.76c1.52-1.03,1.6-1.1,1.6-1.43c0-0.42-0.61-0.63-1.89-0.63
			C1501.97,296.28,1500.52,297.4,1499.35,300.15"/>
		<path class="st6" d="M1476.46,254l1.06,0.68c0.6,0.39,1.11,0.66,1.51,0.83c1.17,0.48,1.59,0.65,1.59,1.1
			c0,0.17-0.05,0.57-0.15,0.86c-0.12,0.34-0.19,0.7-0.23,1.06c-0.11,1.03-0.73,1.29-1.14,1.29c-0.51,0-1.05-0.79-1.89-2.27
			c-0.38-0.67-0.92-2.02-1.21-3.03l-0.05-0.3c0-0.18,0.11-0.29,0.33-0.29"/>
		<path class="st6" d="M1486.7,256.65l-1.74,1.75c-0.62,0.82-0.62,1.53-0.76,1.67c-0.12,0.11-0.3,0.19-0.53,0.23l-0.11,0.01
			c-0.44,0-0.77-0.32-0.8-0.76l-0.07-1.29l-0.08-1.29v-0.08c0-0.5,0.27-0.76,0.67-0.84l1.61-0.45l1.66-0.84
			c0.48-0.24,0.63-0.3,0.72-0.3c0.19,0,0.36,0.2,0.36,0.44c0,0.11-0.06,0.27-0.16,0.48L1486.7,256.65z"/>
		<path class="st6" d="M1479.04,261.8l1.14,0.84c0.28,0.17,0.64,0.26,1.02,0.26c0.46,0,1.15-0.18,1.79-0.48l0.99-0.45
			c0.23-0.1,0.43-0.16,0.59-0.16c0.61,0,1.09,0.64,1.09,1.45c0,1.12-0.81,2.27-1.98,3.94l-0.83,1.75c-0.66,0.95-1.1,1.29-1.64,1.29
			c-0.9,0-1.34-0.51-2.68-3.19c-0.97-1.91-1.36-3.09-1.36-4.02c0-0.8,0.42-1.36,1.02-1.36
			C1478.41,261.66,1478.71,261.6,1479.04,261.8"/>
		<path class="st8" d="M1480.03,265.98l0.07,1.44c0.03,0.65,0.58,1.3,1.1,1.3c0.7,0,1.2-1.06,1.47-2.66
			c0.13-0.73,0.17-0.85,0.17-1.05c0-0.56-0.19-0.71-0.9-0.71l-0.4,0.01h-0.53l-0.34-0.01c-0.47,0-0.66,0.37-0.66,1.33"/>
	</g>
	<g>
		<path class="st6" d="M1394.69,231.67h7.41v15.21h8.72v-15.06h22.01v15.06h8.71v-15.06h7.42v-39.28h-8.48l-0.31-0.46
			c-1.01-1.52-2.39-2.3-4.09-2.3c-1.67,0-3.08,0.98-4,2.76h-6.12c-0.59-1.6-2.31-2.76-4.1-2.76c-1.94,0-3.51,1-4.31,2.76h-6.57
			c-1.09-1.95-2.3-2.75-4.2-2.75c-1.91,0-3.15,0.84-4.06,2.75h-8.02V231.67z"/>
		<rect x="1397.86" y="195.76" class="st7" width="48.19" height="33.03"/>
		<path class="st8" d="M1402.87,203.32c-1.26,0-2.29,1.03-2.29,2.29c0,1.26,1.03,2.3,2.29,2.3c1.27,0,2.3-1.03,2.3-2.3
			C1405.17,204.35,1404.14,203.32,1402.87,203.32"/>
		<path class="st9" d="M1402.87,208.21c-1.44,0-2.6-1.17-2.6-2.61c0-1.43,1.17-2.6,2.6-2.6c1.44,0,2.61,1.17,2.61,2.6
			C1405.48,207.04,1404.31,208.21,1402.87,208.21z M1402.87,203.63c-1.09,0-1.98,0.89-1.98,1.98c0,1.1,0.89,1.99,1.98,1.99
			c1.1,0,1.99-0.89,1.99-1.99C1404.86,204.52,1403.97,203.63,1402.87,203.63z"/>
		<path class="st8" d="M1440.7,203.32c-1.26,0-2.3,1.03-2.3,2.29c0,1.26,1.03,2.3,2.3,2.3c1.27,0,2.3-1.03,2.3-2.3
			C1443,204.35,1441.97,203.32,1440.7,203.32"/>
		<path class="st9" d="M1440.7,208.21c-1.44,0-2.61-1.17-2.61-2.61c0-1.43,1.17-2.6,2.61-2.6c1.44,0,2.61,1.17,2.61,2.6
			C1443.31,207.04,1442.14,208.21,1440.7,208.21z M1440.7,203.63c-1.09,0-1.98,0.89-1.98,1.98c0,1.1,0.89,1.99,1.98,1.99
			c1.09,0,1.98-0.89,1.98-1.99C1442.69,204.52,1441.8,203.63,1440.7,203.63z"/>
		<path class="st8" d="M1402.87,221.28c-1.26,0-2.29,1.03-2.29,2.29c0,1.27,1.06,2.29,2.38,2.29c1.22,0,2.21-1.02,2.21-2.29
			C1405.17,222.31,1404.14,221.28,1402.87,221.28"/>
		<path class="st9" d="M1402.95,226.17c-1.48,0-2.69-1.17-2.69-2.6c0-1.44,1.17-2.6,2.6-2.6c1.44,0,2.61,1.17,2.61,2.6
			C1405.48,225.01,1404.35,226.17,1402.95,226.17z M1402.87,221.59c-1.09,0-1.98,0.89-1.98,1.98c0,1.09,0.93,1.98,2.06,1.98
			c1.05,0,1.9-0.89,1.9-1.98C1404.86,222.48,1403.97,221.59,1402.87,221.59z"/>
		<path class="st8" d="M1440.7,221.28c-1.26,0-2.3,1.03-2.3,2.29c0,1.27,1.03,2.29,2.3,2.29c1.27,0,2.3-1.02,2.3-2.29
			C1443,222.31,1441.97,221.28,1440.7,221.28"/>
		<path class="st9" d="M1440.7,226.17c-1.44,0-2.61-1.17-2.61-2.6c0-1.44,1.17-2.6,2.61-2.6c1.44,0,2.61,1.17,2.61,2.6
			C1443.31,225.01,1442.14,226.17,1440.7,226.17z M1440.7,221.59c-1.09,0-1.98,0.89-1.98,1.98c0,1.09,0.89,1.98,1.98,1.98
			c1.09,0,1.98-0.89,1.98-1.98C1442.69,222.48,1441.8,221.59,1440.7,221.59z"/>
		<path class="st8" d="M1410.06,214.32c3.11,3.89,7.03,5.81,11.87,5.81c4.49,0,7.58-1.61,11.21-5.81
			c-3.62-3.72-6.99-5.27-11.43-5.27C1417.05,209.05,1412.85,210.95,1410.06,214.32"/>
		<path class="st6" d="M1412.35,214.32c3.2-2.49,5.91-3.52,9.25-3.52c3.37,0,5.89,0.99,9.17,3.59c-2.86,2.84-5.37,3.9-9.23,3.9
			C1418.12,218.3,1415,216.95,1412.35,214.32"/>
		<path class="st8" d="M1416.25,213.56c1.92,1.2,3.43,1.68,5.22,1.68c2.1,0,3.86-0.53,5.55-1.68c-1.79-0.86-3.65-1.3-5.47-1.3
			C1419.64,212.26,1417.85,212.7,1416.25,213.56"/>
		<rect x="1397.19" y="197.45" class="st6" width="49.54" height="1.69"/>
		<path class="st9" d="M1446.83,199.24h-49.74v-1.89h49.74V199.24z M1397.29,199.04h49.34v-1.48h-49.34V199.04z"/>
		<path class="st8" d="M1404.78,195.29v3.89v0.84c0,1.13,0.88,1.99,2.04,1.99c1.33,0,2.09-0.71,2.09-1.99v-0.84v-3.82
			c0-1.8-0.74-2.91-1.91-2.91c-0.24,0-0.61,0.09-0.92,0.24c-0.25,0.12-0.43,0.22-0.53,0.3c-0.18,0.16-0.34,0.36-0.46,0.62
			c-0.2,0.41-0.31,0.7-0.31,0.84"/>
		<path class="st8" d="M1419.68,199.19v0.84c0,1.13,0.89,1.99,2.04,1.99c1.34,0,2.09-0.71,2.09-1.99v-0.84v-3.82
			c0-1.78-0.74-2.92-1.9-2.92c-1.36,0-2.23,1.11-2.23,2.84"/>
		<path class="st8" d="M1434.13,195.29v3.89v0.84c0,1.13,0.89,1.99,2.04,1.99c1.34,0,2.09-0.71,2.09-1.99v-0.84v-3.82
			c0-1.8-0.74-2.91-1.91-2.91c-0.23,0-0.61,0.09-0.92,0.24c-0.26,0.12-0.44,0.22-0.54,0.3c-0.18,0.16-0.34,0.36-0.46,0.62
			c-0.2,0.41-0.31,0.7-0.31,0.84"/>
		<rect x="1403.71" y="235.26" class="st8" width="4.51" height="5.8"/>
		<rect x="1403.71" y="242.37" class="st8" width="4.51" height="1.83"/>
		<rect x="1434.44" y="235.26" class="st8" width="4.51" height="5.8"/>
		<rect x="1434.44" y="242.37" class="st8" width="4.51" height="1.83"/>
	</g>
	<path class="st6" d="M1682.04,94.35c0,0.7,0,2.77,0,3.46c-0.69,0-2.27,0-2.27,0c-3.38,0-9.04,0-9.04,10.55v43.31
		c0,26.49-11.53,39.36-35.26,39.36c-26.77,0-39.25-10.67-39.25-33.6v-49.07c0-10.55-5.72-10.55-10.77-10.55c0,0-0.59,0-1.06,0
		c0-0.69,0-2.77,0-3.46c1.01,0,39.04,0,40.05,0c0,0.7,0,2.77,0,3.46c-0.47,0-1.07,0-1.07,0c-4.97,0-11.17,0-11.17,10.55v46.88
		c0,20.2,8.44,30.02,25.8,30.02c16.88,0,25.81-10.58,25.81-30.57v-46.33c0-10.55-5.84-10.55-10.1-10.55c0,0-1.46,0-2.14,0
		c0-0.69,0-2.77,0-3.46C1652.56,94.35,1681.04,94.35,1682.04,94.35"/>
	<path class="st6" d="M1725.31,185.52v3.46c0,0-32.79,0-33.79,0c0-0.69,0-2.77,0-3.46c0.54,0,1.34,0,1.34,0
		c11.07,0,12.5-8.46,12.5-17.96v-56.87c0-9.08-5.24-12.88-12.64-12.88h-1.2v-3.47h26.58l57.51,70.5v-53.6
		c0-12.12-8.46-13.43-12.09-13.43c0,0-1.69,0-2.4,0c0-0.69,0-2.77,0-3.47c1,0,33.14,0,34.15,0c0,0.7,0,2.77,0,3.47
		c-0.58,0-1.48,0-1.48,0c-5.98,0-12.37,1.39-12.37,17.95v73.68l-5.02,0.03l-65.24-78.95l0.02,56.97c0,9.5,1.36,18.02,12.81,18.02"/>
	<path class="st6" d="M1906.58,168.92l20.8-58.17c3.72-9.91,1.33-12.94-7.28-12.94h-1.74v-3.46h26.94v3.46h-0.59
		c-2.92,0-6.37,0.87-8.92,7.38l-31.54,84.15h-6L1864,105.97c-2.72-6.94-5.93-8.16-11.67-8.16c0,0-0.41,0-0.8,0c0-0.69,0-2.76,0-3.46
		c1.02,0,38.12,0,39.13,0c0,0.7,0,2.77,0,3.46c-0.72,0-2.54,0-2.54,0c-6.69,0-7.98,4.19-6.08,9.3"/>
	<path class="st6" d="M2079.02,94.35c20.95,0,31.35,7.72,31.35,23.59c0,13.46-10.5,20.28-18.79,23.63l-0.6,0.25l23.2,35.34
		c3.71,5.73,6.74,7.94,13.14,8.28c0,0.63,0,2.83,0,3.54c-1,0-24.23,0-24.23,0l-28.15-44.43h-10.48v29.45
		c0,10.69,4.75,11.52,11.46,11.52c0,0,1.23,0,1.87,0c0,0.69,0,2.77,0,3.46c-1.02,0-40.13,0-41.14,0c0-0.69,0-2.77,0-3.46
		c0.64,0,1.87,0,1.87,0c4.6,0,9.96-2.09,9.96-7.95v-68.8c0-10.96-6.49-10.96-9.96-10.96c0,0-1.23,0-1.87,0c0-0.69,0-2.77,0-3.47
		C2037.68,94.35,2079.02,94.35,2079.02,94.35 M2064.49,98.81l-0.02,41.89h8.1c14.74,0,21.23-6.56,21.23-21.93
		c0-12.49-8.04-20.56-20.16-20.56C2070.82,98.21,2066.94,98.43,2064.49,98.81z"/>
	<path class="st6" d="M2177.35,171.03c0-11.53-9.89-16.07-19.12-20.87c-10.79-5.62-23.23-11.43-23.23-28.9
		c0-16.92,12.87-27.84,31.27-27.84c7.52,0,16.06,1.5,19.79,2.26l1.29,18.41l-3.54,0.51c-1.64-9.69-6.67-17.12-17.56-17.12
		c-10.24,0-17.82,6.28-17.82,17.6c0,10.67,9.85,15.05,19.03,19.67c11.24,5.66,24.13,11.52,24.13,29.15
		c0,19.52-17.39,28.26-33.48,28.26c-6.38,0-15.27-1.3-22.41-5.34l-2.26-20.49l3.44-0.61c2.63,13.6,11.25,21.49,22.63,21.49
		C2170.4,187.2,2177.35,180.55,2177.35,171.03"/>
	<path class="st6" d="M2244.85,94.35c0,0.7,0,2.77,0,3.46c-0.54,0-1.33,0-1.33,0c-5.39,0-10.37,1.01-10.37,8.36v70.99
		c0,7.35,4.98,8.36,10.37,8.36c0,0,0.79,0,1.33,0c0,0.69,0,2.76,0,3.46c-1.01,0-38.51,0-39.52,0c0-0.69,0-2.77,0-3.46
		c0.54,0,1.33,0,1.33,0c5.39,0,10.37-1.01,10.37-8.36v-70.99c0-7.34-4.98-8.36-10.37-8.36c0,0-0.79,0-1.33,0c0-0.69,0-2.77,0-3.46
		C2206.33,94.35,2243.83,94.35,2244.85,94.35"/>
	<path class="st6" d="M1846.05,94.35c0,0.7,0,2.77,0,3.46c-0.54,0-1.33,0-1.33,0c-5.39,0-10.37,1.01-10.37,8.36v70.99
		c0,7.35,4.98,8.36,10.37,8.36c0,0,0.79,0,1.33,0c0,0.69,0,2.76,0,3.46c-1,0-38.5,0-39.52,0c0-0.69,0-2.77,0-3.46
		c0.54,0,1.34,0,1.34,0c5.38,0,10.37-1.01,10.37-8.36v-70.99c0-7.34-4.99-8.36-10.37-8.36c0,0-0.79,0-1.34,0c0-0.69,0-2.77,0-3.46
		C1807.54,94.35,1845.04,94.35,1846.05,94.35"/>
	<path class="st6" d="M2633.71,231.01l0.32,25.12c0,0-3.05,0.77-4.01,1.03c-0.9-10.98-3.39-19.94-20.95-19.94h-23.6v46.43h20.26
		c9.94,0,12.64-5.56,13.76-15.15c0.76,0,3.17,0,4.03,0c0,1.3,0,38.82,0,38.82l-4.02,0.06c-0.62-9.28-2.81-16.49-13.69-16.49h-20.34
		v40.76c0,11.85,10.21,11.85,21.02,11.85c19.39,0,28.38-1.22,33.81-20.84c0.79,0.2,3.98,0.88,3.98,0.88l-5.43,26.17
		c0,0-86.81,0-88.11,0c0-0.86,0-3.48,0-4.35c0.68,0,1.68,0,1.68,0c6.76,0,13.01-1.26,13.01-10.48v-89.04
		c0-9.21-6.25-10.49-13.01-10.49c0,0-1,0-1.68,0c0-0.86,0-3.46,0-4.34C2552.04,231.01,2633.71,231.01,2633.71,231.01"/>
	<path class="st6" d="M2153.56,231.01c26.28,0,39.33,9.68,39.33,29.58c0,16.88-13.19,25.43-23.57,29.64l-0.77,0.31l29.12,44.33
		c4.66,7.19,8.46,9.96,16.47,10.4c0,0.78,0,3.54,0,4.44c-1.25,0-30.39,0-30.39,0l-35.32-55.74h-13.11v36.96
		c0,13.4,5.94,14.43,14.34,14.43c0,0,1.55,0,2.35,0c0,0.87,0,3.49,0,4.35c-1.27,0-50.33,0-51.6,0c0-0.86,0-3.47,0-4.35
		c0.81,0,2.34,0,2.34,0c5.77,0,12.51-2.6,12.51-9.96v-86.3c0-13.75-8.13-13.75-12.51-13.75c0,0-1.53,0-2.34,0c0-0.86,0-3.46,0-4.34
		C2101.7,231.01,2153.56,231.01,2153.56,231.01 M2135.33,236.59l-0.01,52.55h10.14c18.48,0,26.62-8.23,26.62-27.52
		c0-15.65-10.09-25.78-25.28-25.78C2143.25,235.84,2138.7,236.05,2135.33,236.59z"/>
	<path class="st6" d="M2270.95,230.98c0,0.87,0,3.47,0,4.34c-0.69,0-1.68,0-1.68,0c-6.76,0-13.01,1.28-13.01,10.49v89.05
		c0,9.21,6.25,10.48,13.01,10.48c0,0,0.99,0,1.68,0c0,0.87,0,3.48,0,4.34c-1.26,0-48.32,0-49.58,0c0-0.86,0-3.47,0-4.34
		c0.67,0,1.67,0,1.67,0c6.77,0,13.01-1.27,13.01-10.48v-89.05c0-9.21-6.25-10.49-13.01-10.49c0,0-1,0-1.67,0c0-0.87,0-3.47,0-4.34
		C2222.63,230.98,2269.69,230.98,2270.95,230.98"/>
	<path class="st6" d="M2265.41,94.35h62.6c3.14,0,7.19-0.79,7.82-4.91l3.05-0.01l-2.4,24.68l-3.36,0
		c-0.21-5.7-1.04-13.98-10.19-13.98h-19.11v73.06c0,11.38,5.48,12.34,11.58,12.34c0,0,1.34,0,1.99,0c0,0.69,0,2.76,0,3.46
		c-1.01,0-42.09,0-43.11,0c0-0.69,0-2.77,0-3.46c0.66,0,2,0,2,0c7.18,0,11.57-0.59,11.57-12.06v-73.33h-19.32
		c-9.84,0-10.78,4.32-12.68,13.88h-3.4l2.18-24.37c0,0,2.32,0,2.77,0C2258.67,93.57,2262.08,94.36,2265.41,94.35"/>
	<path class="st6" d="M2435.68,94.35v3.51c-5.45,0.3-8.73,4.02-11.2,7.5c0,0-24.02,37.02-24.02,37.02v30.24
		c0,12.02,4.37,12.89,11.57,12.89c0,0,1.34,0,2.01,0c0,0.69,0,2.76,0,3.46c-1.01,0-42.11,0-43.13,0c0-0.69,0-2.77,0-3.46
		c0.67,0,2.01,0,2.01,0c7.5,0,11.58-1.88,11.58-11.79v-29.1l-26.08-37.28c-3.99-5.75-6.98-9.55-13.31-9.55h-0.79v-3.46h39.09v3.46
		h-1.21c-7.5,0-8.05,3.98-4.85,8.52l20.21,31.33l17.88-28.29c4.1-6.17,5.28-11.56-4.85-11.56h-1.55l0-3.46"/>
	<path class="st6" d="M2464.37,142.35c0-28.07,21.33-50.06,48.57-50.06c29.69,0,50.41,19.23,50.41,46.77
		c0,30.12-20.92,51.98-49.75,51.98C2485.08,191.04,2464.37,170.57,2464.37,142.35 M2481.94,137.55c0,23.37,10.32,48.53,32.99,48.53
		c20.75,0,30.85-14.39,30.85-44c0-21.74-11.61-44.83-33.12-44.83C2484.16,97.25,2481.94,128.1,2481.94,137.55z"/>
	<path class="st6" d="M2574.15,188.97c0-0.71,0-2.76,0-3.45c0.54,0,1.35,0,1.35,0c5.38,0,10.37-1.01,10.37-8.36v-70.99
		c0-7.35-4.98-8.36-10.37-8.36c0,0-0.81,0-1.35,0c0-0.69,0-2.75,0-3.45h66.12l0.24,20.02c-0.55,0.15-2.42,0.6-3.18,0.82
		c-0.74-8.14-2.6-15.9-13.9-15.9h-21.59v37.02h18.93c7.83,0,8.96-6.18,9.03-11.11c0.65,0,2.43,0,3.12,0v0.02v30.3
		c-0.69,0-2.46,0-3.11,0c-0.07-5.93-1.45-13.44-11.16-13.44h-16.81v35.07c0,8.36,7.05,8.36,13.3,8.36c0,0,0.69,0,1.2,0
		c0,0.69,0,2.75,0,3.45"/>
	<path class="st6" d="M1591.88,290.26c0-17.65,7.16-34.98,19.49-46.02c11.43-10.25,26.44-16.01,43.39-16.01
		c15.18,0,27.83,2.75,40.21,8.53l1.26,27.48l-3.9,0.5c-4.48-15.93-11.92-30.52-37.07-30.52c-25.84,0-41.89,20.45-41.89,53.39
		c0,29.32,12.98,57.04,44.41,57.04c17.67,0,30.27-6.62,39.77-18.84l3.11,5.81c-10.71,13.85-27.25,21.23-46.08,21.23
		C1616.3,352.85,1591.88,330.26,1591.88,290.26"/>
	<path class="st6" d="M1847.84,253.96c0,0-3.94,73.31-3.94,73.31c-0.72,16.24,4.32,17.66,15.23,18.07h1.01v4.31h-40.01v-4.31h1.53
		c13.48-0.54,14.31-8.04,14.93-18.99l4.65-75.04c0.61-10.24-5-16.05-14.44-16.05c0,0-0.75,0-1.37,0c0-0.94,0-3.38,0-4.32
		c1.46,0,32.64,0,33.6,0c0.4,0.95,40.31,89.96,40.31,89.96s37.74-89.02,38.14-89.97c0.95,0,32.94,0,32.94,0l-0.01,4.37h-0.63
		c-13.35,0-15.72,4.15-14.71,20.93l4.59,78.73c0.7,9.21,5.53,10.04,14.62,10.38c0,0.93,0,3.34,0,4.29c-1.48,0-47.78,0-49.26,0
		c0-0.95,0-3.39,0-4.29c0.14-0.01,0.32-0.02,0.32-0.02c8.02-0.48,13.82-0.82,13.82-8.88l-0.17-8.51c0-0.02-3.61-75.9-3.61-75.9
		s-40.64,97.55-41.04,98.5c-0.65,0-2.92,0-3.58,0C1890.35,349.56,1847.84,253.96,1847.84,253.96"/>
	<path class="st6" d="M2289.64,349.68v-4.35h1.68c6.76,0,13.01-1.26,13.01-10.49v-89.03c0-9.21-6.25-10.48-13.01-10.48h-1.68v-4.35
		l53.07-0.05c19.72,0,36.25,4.96,47.79,15.7c11.37,10.59,17.39,25.58,17.39,43.38c0,16.63-6.62,32.74-18.16,44.19
		c-11.62,11.51-27.88,15.44-44.34,15.44 M2324.5,236.64l-0.01,93.21c0,12.59,5.32,14.62,18.05,14.62
		c29.99,0,43.64-25.83,43.64-51.14c0-39.34-16.24-57.25-49.62-57.25C2333.62,236.08,2327.34,236.34,2324.5,236.64z"/>
	<path class="st6" d="M2508.91,343.58v-29.1c0-6.37-4.63-9.74-13.4-9.74h-1.39v-4.23h45.63v4.23h-1.38c-6.38,0-9.75,3.37-9.75,9.74
		l-0.02,32.39c-10.89,3.51-25.5,6.27-41.73,6.27c-39.18,0-64.5-25.4-64.5-64.7c0-41.8,33.4-60.85,64.83-60.85
		c14.08,0,28.55,2.8,37.72,5.87l1.89,28.33l-3.98,0.25c-4.92-20.41-14.02-28.41-34.46-28.41c-27.58,0-44.3,20.33-44.3,53.05
		c0,30.06,14.11,59.86,45.63,59.86C2496.95,346.71,2504.46,345.6,2508.91,343.58"/>
	<path class="st6" d="M2026.02,288.21v41.77c0,11.6,3.69,14.92,15.74,14.92c14.46,0,25.37-11.9,25.37-28.11
		c0-18.23-11.1-28.58-29.7-28.58 M2026.02,235.36v47.67h8.93c16.35,0,25.36-7.93,25.36-23.1c0-16.77-7.92-24.56-23.54-24.56H2026.02
		z M2050.35,285.06c14.94,1.09,22.89,4.38,29.58,11.23c5.17,5.29,7.9,12,7.9,19.8c0,18.63-17.08,33.56-39.28,33.56l-58.15-0.01v-4.3
		h2.35c5.76,0,12.5-2.75,12.5-10.11v-86.12c0-13.75-8.14-13.75-12.5-13.75h-2.35v-4.34l52.7-0.03c24.74,0,38.37,8.97,38.37,25.96
		C2081.46,275.75,2064.92,282.71,2050.35,285.06"/>
	<path class="st6" d="M1753.3,230.97c0,0-37.68,102.45-37.68,102.46c-2.79,7.28-7.73,11.77-15.03,11.77h-0.4l-0.02,4.45h36.13
		l-0.01-4.45h-1.57c-8.7,0-14.61-2.78-10.83-14l8.62-23.94h37.4l9.35,26.09c2.69,8.23-0.81,11.97-9.75,11.97h-1.04l0,4.38h45.96
		l0.01-4.38h-0.36c-6.13,0-10.32-3.21-13.19-11.35l-38.66-102.99 M1751.24,255.19l16.58,46.24h-33.21L1751.24,255.19z"/>
	<path class="st6" d="M2017.82,94.34l0.26,20.01c0,0-2.43,0.61-3.19,0.83c-0.72-8.75-2.7-15.89-16.69-15.89h-18.8v36.98h16.14
		c7.92,0,10.07-4.43,10.96-12.07c0.61,0,2.53,0,3.23,0c0,1.03,0,30.93,0,30.93l-3.21,0.05c-0.49-7.4-2.23-13.15-10.91-13.15h-16.2
		v32.48c0,9.45,8.13,9.45,16.74,9.45c15.45,0,22.61-0.98,26.94-16.62c0.63,0.17,3.16,0.71,3.16,0.71l-4.32,20.86
		c0,0-69.19,0-70.22,0c0-0.68,0-2.77,0-3.46c0.54,0,1.34,0,1.34,0c5.38,0,10.37-1.01,10.37-8.36v-70.95c0-7.34-4.99-8.35-10.37-8.35
		c0,0-0.8,0-1.34,0c0-0.69,0-2.77,0-3.46C1952.71,94.34,2017.82,94.34,2017.82,94.34"/>
</g>
<g>
	<path class="st0" d="M771.83,174.08h-10.32v-37.2h-0.64l-13.92,30.8h-10.64l-14-30.8h-0.64v37.2h-10.32v-56h12.96l17.04,38.4h0.64
		l16.96-38.4h12.88V174.08z"/>
	<path class="st0" d="M814.95,174.08l-11.68-21.84h-9.12v21.84h-10.32v-56h22.16c11.2,0,18.08,6.64,18.08,16.48
		c0,7.6-4.16,13.2-10.8,15.76l12.88,23.76H814.95z M794.15,143.28h10.64c5.44,0,8.72-3.44,8.72-8.16c0-4.96-3.28-8.08-8.72-8.08
		h-10.64V143.28z"/>
	<path class="st0" d="M858.71,174.88c-17.12,0-27.52-12.08-27.52-28.56c0-16.96,11.04-29.04,27.52-29.04
		c12.64,0,22.72,6.72,24.64,19.12h-11.36c-1.76-5.76-6.48-9.36-13.28-9.36c-10,0-16.72,8.4-16.72,19.28c0,11.28,7.2,18.8,16.72,18.8
		c7.28,0,12.4-3.6,14.16-9.04h11.36C882.39,168.08,871.67,174.88,858.71,174.88z"/>
	<path class="st0" d="M752.31,240.56c0,9.84-6.8,15.52-18.08,15.52h-22.88v-56h23.04c11.04,0,16.32,5.76,16.32,14
		c0,6.72-3.68,10.08-7.76,12v0.48C746.95,228,752.31,231.92,752.31,240.56z M721.67,223.04h11.12c4.8,0,7.36-2.88,7.36-7.28
		c0-4.48-2.88-7.2-7.2-7.2h-11.28V223.04z M741.51,239.76c0-4.72-3.04-8.24-8.24-8.24h-11.6v16.08h11.6
		C738.71,247.6,741.51,244.32,741.51,239.76z"/>
	<path class="st0" d="M759.11,204.8c0-3.52,2.96-6.24,6.32-6.24c3.36,0,6.16,2.72,6.16,6.24c0,3.28-2.8,6.16-6.16,6.16
		C762.07,210.96,759.11,208.08,759.11,204.8z M760.31,216.08h10.24v40h-10.24V216.08z"/>
	<path class="st0" d="M777.83,236c0-12.32,9.12-20.72,21.12-20.72c12,0,21.12,8.48,21.12,20.72c0,12.4-9.04,20.88-21.12,20.88
		C787.03,256.88,777.83,248.32,777.83,236z M809.91,236c0-6.64-4.4-11.84-10.96-11.84c-6.56,0-10.88,5.2-10.88,11.84
		c0,6.72,4.32,12,10.88,12C805.59,248,809.91,242.72,809.91,236z"/>
	<path class="st0" d="M825.35,243.28h9.84c0.56,4.32,3.76,6,7.84,6c3.12,0,5.84-1.2,5.84-4.08c0-3.04-2.72-4.32-7.04-5.44
		l-3.76-0.96c-5.36-1.28-11.44-3.44-11.44-11.28c0-8,7.04-12.24,14.96-12.24c10.8,0,15.76,5.68,16.32,12.24h-9.84
		c-0.4-2.88-2.64-4.64-6.4-4.64c-3.12,0-5.28,1.52-5.28,4.08c0,2.8,2.72,3.52,6.56,4.56l3.76,0.96c6.96,1.76,11.92,4.96,11.92,12.48
		c0,8.24-7.04,11.92-15.52,11.92C831.83,256.88,825.91,251.52,825.35,243.28z"/>
	<path class="st0" d="M869.67,245.2v-21.04h-8.56v-8.08h2.72c4.88,0,6.8-1.76,6.8-6.08v-4.8h9.28v10.88h10.48v8.08h-10.48v19.68
		c0,2.24,0.56,4.96,5.36,4.96c1.2,0,2.72-0.24,3.92-0.56V256c-1.76,0.4-4.16,0.88-7.04,0.88
		C870.95,256.88,869.67,249.6,869.67,245.2z"/>
	<path class="st0" d="M934.31,248.4v7.68h-4.32c-3.76,0-6.72-1.12-8.08-4.8c-2.72,3.44-6.88,5.6-13.2,5.6
		c-8.16,0-14.16-3.84-14.16-11.76c0-7.68,5.84-11.44,13.2-12.16l12.48-1.28V230c0-4.4-2.8-6.56-6.72-6.56c-4.32,0-6.56,2.4-7.2,6
		h-10.24c0.8-8.32,7.2-14.16,17.44-14.16c9.36,0,16.96,4.72,16.96,15.44v14.64c0,2.08,0.96,3.04,2.88,3.04H934.31z M920.23,238.72
		l-8.96,0.96c-3.68,0.4-6.48,1.92-6.48,5.04c0,3.2,2.48,4.32,5.68,4.32c4.32,0,9.76-2.08,9.76-8.4V238.72z"/>
	<path class="st0" d="M943.91,245.2v-21.04h-8.56v-8.08h2.72c4.88,0,6.8-1.76,6.8-6.08v-4.8h9.28v10.88h10.48v8.08h-10.48v19.68
		c0,2.24,0.56,4.96,5.36,4.96c1.2,0,2.72-0.24,3.92-0.56V256c-1.76,0.4-4.16,0.88-7.04,0.88
		C945.19,256.88,943.91,249.6,943.91,245.2z"/>
	<path class="st0" d="M969.59,204.8c0-3.52,2.96-6.24,6.32-6.24c3.36,0,6.16,2.72,6.16,6.24c0,3.28-2.8,6.16-6.16,6.16
		C972.55,210.96,969.59,208.08,969.59,204.8z M970.79,216.08h10.24v40h-10.24V216.08z"/>
	<path class="st0" d="M988.23,243.28h9.84c0.56,4.32,3.76,6,7.84,6c3.12,0,5.84-1.2,5.84-4.08c0-3.04-2.72-4.32-7.04-5.44
		l-3.76-0.96c-5.36-1.28-11.44-3.44-11.44-11.28c0-8,7.04-12.24,14.96-12.24c10.8,0,15.76,5.68,16.32,12.24h-9.84
		c-0.4-2.88-2.64-4.64-6.4-4.64c-3.12,0-5.28,1.52-5.28,4.08c0,2.8,2.72,3.52,6.56,4.56l3.76,0.96c6.96,1.76,11.92,4.96,11.92,12.48
		c0,8.24-7.04,11.92-15.52,11.92C994.71,256.88,988.79,251.52,988.23,243.28z"/>
	<path class="st0" d="M1032.55,245.2v-21.04h-8.56v-8.08h2.72c4.88,0,6.8-1.76,6.8-6.08v-4.8h9.28v10.88h10.48v8.08h-10.48v19.68
		c0,2.24,0.56,4.96,5.36,4.96c1.2,0,2.72-0.24,3.92-0.56V256c-1.76,0.4-4.16,0.88-7.04,0.88
		C1033.83,256.88,1032.55,249.6,1032.55,245.2z"/>
	<path class="st0" d="M1058.23,204.8c0-3.52,2.96-6.24,6.32-6.24c3.36,0,6.16,2.72,6.16,6.24c0,3.28-2.8,6.16-6.16,6.16
		C1061.19,210.96,1058.23,208.08,1058.23,204.8z M1059.43,216.08h10.24v40h-10.24V216.08z"/>
	<path class="st0" d="M1076.95,236.24c0-12.56,9.12-20.96,20.8-20.96c9.28,0,18.08,4.96,19.36,15.44h-10.24
		c-0.88-3.68-4.32-6.56-9.12-6.56c-6.08,0-10.56,4.96-10.56,12.08c0,7.04,4.16,11.76,10.72,11.76c4.64,0,7.76-2.08,9.04-5.76h10.32
		c-1.36,8.96-8.96,14.64-19.36,14.64C1085.43,256.88,1076.95,248.32,1076.95,236.24z"/>
	<path class="st0" d="M1122.55,243.28h9.84c0.56,4.32,3.76,6,7.84,6c3.12,0,5.84-1.2,5.84-4.08c0-3.04-2.72-4.32-7.04-5.44
		l-3.76-0.96c-5.36-1.28-11.44-3.44-11.44-11.28c0-8,7.04-12.24,14.96-12.24c10.8,0,15.76,5.68,16.32,12.24h-9.84
		c-0.4-2.88-2.64-4.64-6.4-4.64c-3.12,0-5.28,1.52-5.28,4.08c0,2.8,2.72,3.52,6.56,4.56l3.76,0.96c6.96,1.76,11.92,4.96,11.92,12.48
		c0,8.24-7.04,11.92-15.52,11.92C1129.03,256.88,1123.11,251.52,1122.55,243.28z"/>
	<path class="st0" d="M757.35,316.4c0,15.2-9.84,22.48-22.88,22.48c-13.12,0-23.12-7.28-23.12-22.48v-34.32h10.56v34
		c0,8.48,5.28,13.04,12.56,13.04s12.32-4.56,12.32-13.04v-34h10.56V316.4z"/>
	<path class="st0" d="M767.51,298.08h9.36l0.88,4.72h0.64c2.4-3.12,5.76-5.52,11.76-5.52c9.52,0,15.6,6.08,15.6,16.56v24.24h-10.24
		v-22.16c0-6.56-3.76-9.76-8.56-9.76c-4.88,0-9.2,3.12-9.2,10.24v21.68h-10.24V298.08z"/>
	<path class="st0" d="M813.51,286.8c0-3.52,2.96-6.24,6.32-6.24c3.36,0,6.16,2.72,6.16,6.24c0,3.28-2.8,6.16-6.16,6.16
		C816.47,292.96,813.51,290.08,813.51,286.8z M814.71,298.08h10.24v40h-10.24V298.08z"/>
	<path class="st0" d="M838.87,327.2v-21.04h-8.56v-8.08h2.72c4.88,0,6.8-1.76,6.8-6.08v-4.8h9.28v10.88h10.48v8.08h-10.48v19.68
		c0,2.24,0.56,4.96,5.36,4.96c1.2,0,2.72-0.24,3.92-0.56V338c-1.76,0.4-4.16,0.88-7.04,0.88
		C840.15,338.88,838.87,331.6,838.87,327.2z"/>
</g>
</svg>
